<svg width="296" height="43" viewBox="0 0 296 43" fill="none" xmlns="http://www.w3.org/2000/svg">
<path d="M19.284 17.5321C19.34 17.6201 19.364 17.7281 19.356 17.8561C19.348 17.9761 19.308 18.1041 19.236 18.2401C19.172 18.3681 19.08 18.5001 18.96 18.6361C18.84 18.7721 18.696 18.892 18.528 18.996L18.54 18.9841C18.428 19.0721 18.308 19.1441 18.18 19.2001C18.084 19.2561 17.94 19.3441 17.748 19.4641C17.556 19.5841 17.264 19.7641 16.872 20.0041L16.656 20.1481C16.64 20.1641 16.616 20.18 16.584 20.1961C16.56 20.2121 16.528 20.232 16.488 20.2561L16.512 20.2441C16.472 20.2761 16.428 20.3081 16.38 20.3401C16.332 20.3641 16.284 20.3921 16.236 20.4241C15.9 20.6401 15.508 20.8921 15.06 21.1801C14.62 21.4681 14.116 21.8121 13.548 22.2121C12.748 22.7641 11.816 23.4241 10.752 24.1921C9.688 24.9681 8.464 25.9121 7.08 27.0241V27.0121C6.704 27.3161 6.328 27.6361 5.952 27.9721C5.576 28.3081 5.184 28.6681 4.776 29.0521V29.0401L4.692 29.1241C4.596 29.2121 4.508 29.2961 4.428 29.3761C4.34 29.4561 4.244 29.5481 4.14 29.6521C3.924 30.0121 3.692 30.3921 3.444 30.7921C3.188 31.1921 2.908 31.6201 2.604 32.0761C2.372 32.4201 2.144 32.7521 1.92 33.0721C1.696 33.3921 1.48 33.6921 1.272 33.972L1.284 33.9601C1.268 33.9761 1.252 33.996 1.236 34.0201C1.22 34.0441 1.204 34.0641 1.188 34.0801L0.972 34.3081H0.816C0.8 34.3081 0.748 34.3041 0.66 34.2961C0.564 34.2961 0.448 34.2961 0.312 34.2961C0.224 34.1761 0.168 34.0921 0.144 34.0441C0.12 33.9961 0.0999999 33.9521 0.0839996 33.9121C0.0759997 33.8961 0.0679998 33.8721 0.0599999 33.8401C0.052 33.8161 0.0320001 33.772 0 33.708L0.0119998 33.5641L0.0239997 33.6241C0.0239997 33.6081 0.0239997 33.5841 0.0239997 33.5521C0.0159998 33.5201 0.0119998 33.4961 0.0119998 33.4801V33.4081C0.0279996 33.272 0.0479996 33.1521 0.0719998 33.048C0.096 32.944 0.124 32.8481 0.156 32.7601C0.228 32.5761 0.304 32.4081 0.384 32.2561C0.464 32.1121 0.548 31.9721 0.636 31.8361C0.932 31.3961 1.232 31.0001 1.536 30.6481C1.84 30.2961 2.148 29.9601 2.46 29.6401C2.468 29.6321 2.476 29.6201 2.484 29.6041C2.484 29.5961 2.492 29.5841 2.508 29.5681C2.516 29.5601 2.52 29.5521 2.52 29.5441C2.608 29.4081 2.696 29.2601 2.784 29.1001C2.864 28.9481 2.948 28.8041 3.036 28.6681C3.516 27.868 3.924 27.1681 4.26 26.5681C4.588 25.9681 4.888 25.4201 5.16 24.9241C5.192 24.8681 5.224 24.812 5.256 24.7561C5.28 24.708 5.308 24.6601 5.34 24.6121L5.328 24.6361C5.4 24.5001 5.472 24.3601 5.544 24.2161C5.616 24.0801 5.688 23.944 5.76 23.8081V23.8201C5.944 23.4681 6.128 23.128 6.312 22.8001C6.496 22.4641 6.68 22.1161 6.864 21.7561C7.104 21.2761 7.38 20.7121 7.692 20.0641C8.012 19.416 8.344 18.7041 8.688 17.9281C8.864 17.5201 9.06 17.0601 9.276 16.5481C9.492 16.0281 9.716 15.4681 9.948 14.8681C10.188 14.2601 10.432 13.6201 10.68 12.9481C10.936 12.2681 11.184 11.5721 11.424 10.8601C11.656 10.1561 11.884 9.45205 12.108 8.74805C12.332 8.03605 12.532 7.36805 12.708 6.74405C12.26 7.08805 11.82 7.39605 11.388 7.66805C10.964 7.94005 10.552 8.18005 10.152 8.38805C9.752 8.59605 9.368 8.78005 9 8.94005C8.64 9.10005 8.3 9.24005 7.98 9.36005C7.292 9.61605 6.692 9.81205 6.18 9.94805C5.668 10.0761 5.24 10.1761 4.896 10.2481C4.608 10.3121 4.36 10.3601 4.152 10.3921C3.936 10.4161 3.772 10.4361 3.66 10.4521C3.652 10.4521 3.648 10.4561 3.648 10.4641C3.648 10.4641 3.64 10.4641 3.624 10.4641C3.416 10.4881 3.224 10.4881 3.048 10.4641C2.864 10.4321 2.704 10.3841 2.568 10.3201C2.424 10.2481 2.312 10.1641 2.232 10.0681C2.152 9.97205 2.112 9.86405 2.112 9.74405C2.112 9.52805 2.24 9.34005 2.496 9.18005C2.744 9.02005 3.048 8.91605 3.408 8.86805C3.44 8.85205 3.468 8.84805 3.492 8.85605C3.516 8.85605 3.548 8.85605 3.588 8.85605C3.644 8.85605 3.68 8.85205 3.696 8.84405C3.744 8.83605 3.796 8.83205 3.852 8.83205C3.908 8.82405 3.976 8.81205 4.056 8.79605H4.044C4.076 8.78805 4.108 8.78405 4.14 8.78405C4.164 8.78405 4.196 8.78005 4.236 8.77205C4.468 8.74005 4.768 8.69205 5.136 8.62805C5.504 8.55605 5.948 8.45205 6.468 8.31605H6.456C6.752 8.22805 7.068 8.13205 7.404 8.02805C7.748 7.91605 8.104 7.78005 8.472 7.62005C8.856 7.46005 9.268 7.26405 9.708 7.03205C10.148 6.80005 10.632 6.51605 11.16 6.18005C11.4 6.02005 11.66 5.84005 11.94 5.64005C12.228 5.43205 12.48 5.24005 12.696 5.06405C12.736 5.02405 12.788 4.98005 12.852 4.93205C12.916 4.87605 12.968 4.82805 13.008 4.78805C13.064 4.74005 13.104 4.70405 13.128 4.68005C13.16 4.65605 13.204 4.61605 13.26 4.56005C13.364 4.30405 13.5 4.17605 13.668 4.17605C13.836 4.16805 14.004 4.23205 14.172 4.36805L14.148 4.41605C14.188 4.43205 14.232 4.45205 14.28 4.47605C14.328 4.49205 14.384 4.51605 14.448 4.54805C14.488 4.57205 14.54 4.61205 14.604 4.66805C14.676 4.71605 14.748 4.76805 14.82 4.82405L14.448 5.20805V5.22005L14.388 5.36405C14.372 5.39605 14.364 5.42405 14.364 5.44805C14.356 5.47205 14.348 5.50005 14.34 5.53205C14.34 5.55605 14.336 5.57605 14.328 5.59205C14.312 5.65605 14.296 5.71205 14.28 5.76005C14.272 5.80005 14.26 5.84805 14.244 5.90405C14.02 6.68805 13.768 7.52805 13.488 8.42405C13.216 9.31205 12.908 10.2561 12.564 11.2561C12.244 12.1681 11.932 13.0121 11.628 13.7881C11.332 14.5641 11.048 15.2881 10.776 15.9601C10.504 16.6241 10.244 17.2401 9.996 17.8081C9.756 18.3761 9.532 18.9001 9.324 19.3801C8.9 20.34 8.524 21.1761 8.196 21.8881C7.868 22.5921 7.568 23.2361 7.296 23.8201C7.088 24.2601 6.884 24.684 6.684 25.0921C6.476 25.5 6.256 25.9241 6.024 26.3641C6.096 26.3001 6.172 26.236 6.252 26.1721C6.324 26.1081 6.4 26.0441 6.48 25.9801C7.6 25.0601 8.608 24.2601 9.504 23.5801C10.408 22.9001 11.204 22.3081 11.892 21.8041C11.908 21.7961 11.92 21.788 11.928 21.7801C11.944 21.7721 11.96 21.764 11.976 21.7561C12 21.74 12.028 21.7201 12.06 21.6961C12.092 21.6721 12.116 21.6521 12.132 21.6361C12.484 21.3801 12.812 21.1401 13.116 20.9161C13.42 20.6921 13.7 20.4881 13.956 20.3041C14.06 20.232 14.16 20.1601 14.256 20.0881C14.36 20.0161 14.456 19.9481 14.544 19.8841C14.784 19.7161 15 19.5601 15.192 19.416C15.344 19.3041 15.48 19.2041 15.6 19.1161C15.728 19.0281 15.848 18.944 15.96 18.864C16 18.8321 16.036 18.8041 16.068 18.7801C16.108 18.7561 16.148 18.7281 16.188 18.6961C16.332 18.5921 16.46 18.496 16.572 18.4081C16.772 18.264 16.952 18.1361 17.112 18.0241C17.272 17.9121 17.452 17.788 17.652 17.6521C17.836 17.5401 18.024 17.4521 18.216 17.3881C18.408 17.3241 18.584 17.2921 18.744 17.2921C18.856 17.2921 18.96 17.312 19.056 17.3521C19.16 17.3841 19.24 17.4441 19.296 17.5321H19.284ZM14.46 5.14805C14.46 5.15605 14.456 5.16005 14.448 5.16005C14.448 5.16005 14.448 5.16405 14.448 5.17205C14.456 5.16405 14.46 5.15605 14.46 5.14805Z" fill="#F44647"/>
<path d="M18.0173 17.4361C18.2173 17.2761 18.4292 17.1961 18.6532 17.1961C18.7652 17.1961 18.8733 17.2201 18.9773 17.2681C19.0893 17.3161 19.1853 17.3841 19.2653 17.4721C19.3933 17.6401 19.4333 17.84 19.3853 18.0721C19.3452 18.2961 19.2253 18.496 19.0252 18.6721C19.0012 18.68 18.9813 18.6921 18.9653 18.7081C18.9492 18.7241 18.9333 18.7361 18.9172 18.7441C18.9093 18.7521 18.8973 18.7601 18.8813 18.7681C18.8413 18.7921 18.7773 18.8361 18.6893 18.9001C18.6013 18.9641 18.4772 19.0601 18.3172 19.1881L18.3293 19.1761C18.1772 19.3041 17.9893 19.4721 17.7653 19.6801C17.5493 19.8801 17.2893 20.132 16.9853 20.4361L16.9373 20.4841H16.9492C16.8053 20.6441 16.6493 20.8241 16.4813 21.0241C16.3213 21.2161 16.1653 21.416 16.0133 21.6241V21.6121C15.8773 21.8121 15.7333 22.0401 15.5813 22.2961C15.4292 22.5441 15.2933 22.8281 15.1733 23.1481C15.3573 23.0601 15.5533 22.9521 15.7613 22.8241C15.9693 22.6961 16.1813 22.5641 16.3973 22.4281C16.8933 22.1161 17.4093 21.7721 17.9452 21.3961C17.9613 21.3801 17.9733 21.3721 17.9813 21.3721C17.9973 21.3641 18.0133 21.3521 18.0293 21.3361C18.1493 21.24 18.2653 21.1561 18.3773 21.0841L18.5933 20.9281C18.6093 20.9121 18.6292 20.8961 18.6532 20.8801C18.6772 20.8561 18.6973 20.8361 18.7133 20.8201L18.9412 20.7961L19.4813 20.8081L19.6733 20.9521C19.6893 20.9601 19.6973 20.9681 19.6973 20.9761C19.7052 20.9841 19.7172 20.9921 19.7332 21.0001C19.7572 21.0161 19.7932 21.0401 19.8412 21.0721C19.8972 21.0961 20.0093 21.156 20.1772 21.2521C20.3533 21.34 20.6173 21.4761 20.9692 21.6601C21.3293 21.8361 21.8293 22.0841 22.4692 22.4041C22.6772 22.4921 22.8972 22.5801 23.1292 22.6681C23.3612 22.7481 23.6012 22.8281 23.8493 22.9081C24.0732 22.972 24.3372 23.0361 24.6413 23.1001C24.9453 23.1641 25.2892 23.216 25.6733 23.2561C25.7453 23.264 25.8293 23.2681 25.9253 23.2681C26.0213 23.2681 26.1093 23.2681 26.1893 23.2681C26.3013 23.2681 26.4333 23.264 26.5853 23.2561C26.7373 23.2481 26.8933 23.2321 27.0533 23.2081C27.3093 23.1681 27.5893 23.104 27.8933 23.0161C28.2053 22.9281 28.5173 22.8081 28.8293 22.6561C29.5493 22.3201 30.1772 21.976 30.7133 21.6241C31.2573 21.2721 31.7413 20.944 32.1653 20.6401C32.5973 20.3281 32.9773 20.0361 33.3053 19.7641C33.6413 19.4921 33.9253 19.2521 34.1573 19.0441C34.4693 18.764 34.7373 18.5081 34.9613 18.2761C35.1933 18.0441 35.3653 17.872 35.4773 17.76L35.5732 17.6761C35.6693 17.58 35.7773 17.5081 35.8973 17.4601C36.0253 17.4041 36.1493 17.3761 36.2693 17.3761C36.3573 17.3761 36.4413 17.3921 36.5213 17.4241C36.6093 17.4481 36.6893 17.4921 36.7613 17.5561C36.9213 17.6921 37.0013 17.872 37.0013 18.0961C37.0013 18.216 36.9733 18.34 36.9173 18.4681C36.8613 18.5961 36.7773 18.7161 36.6653 18.8281C36.6333 18.8521 36.5973 18.8841 36.5573 18.9241C36.5173 18.9561 36.4533 19.0081 36.3653 19.0801C36.2853 19.1521 36.1773 19.2441 36.0413 19.3561C35.9053 19.4681 35.7253 19.6161 35.5013 19.8001C35.2853 19.9841 35.0013 20.2121 34.6493 20.4841C34.2972 20.7481 33.8933 21.0441 33.4373 21.3721C33.2133 21.5321 32.9493 21.7081 32.6453 21.9001C32.3493 22.0921 32.0253 22.2921 31.6733 22.5001C31.3213 22.7081 30.9453 22.9201 30.5452 23.1361C30.1533 23.3441 29.7493 23.5441 29.3333 23.7361C28.9093 23.9281 28.4853 24.0801 28.0613 24.1921C27.6373 24.3041 27.2533 24.3761 26.9093 24.4081C26.7973 24.4241 26.6693 24.4321 26.5252 24.4321C26.3892 24.4401 26.2653 24.4441 26.1533 24.4441C25.9693 24.4441 25.7812 24.4361 25.5893 24.4201C25.3973 24.4121 25.2253 24.4001 25.0732 24.3841C24.6252 24.3361 24.2013 24.2681 23.8013 24.1801C23.4013 24.1001 23.0493 24.0161 22.7453 23.9281C22.4412 23.8401 22.1493 23.7481 21.8693 23.6521C21.5893 23.5561 21.2853 23.4401 20.9573 23.3041C20.7973 23.232 20.6252 23.1521 20.4412 23.0641C20.2652 22.9761 20.0812 22.8761 19.8892 22.7641L19.9013 22.7761C19.8853 22.7681 19.8732 22.7641 19.8652 22.7641C19.8652 22.7561 19.8573 22.7481 19.8412 22.7401C19.7533 22.6921 19.6573 22.6401 19.5533 22.5841C19.4493 22.5281 19.3493 22.4681 19.2533 22.4041C19.2132 22.3801 19.1892 22.3681 19.1812 22.3681C19.1812 22.3601 19.1573 22.34 19.1093 22.3081C18.5493 22.66 18.0333 22.9721 17.5613 23.2441C17.0893 23.5081 16.6652 23.7361 16.2892 23.9281C16.1213 24.0161 15.9333 24.1041 15.7253 24.1921C15.5173 24.2801 15.3053 24.3561 15.0893 24.4201C15.0093 24.4441 14.9253 24.4601 14.8372 24.4681C14.7492 24.4761 14.6572 24.4801 14.5612 24.4801C14.4572 24.4641 14.3453 24.424 14.2253 24.3601C14.1213 24.3041 14.0373 24.2281 13.9733 24.1321C13.9093 24.0441 13.8693 23.944 13.8533 23.8321L13.8652 23.8561C13.8492 23.76 13.8453 23.6681 13.8533 23.5801C13.8612 23.4921 13.8733 23.4001 13.8892 23.3041L13.8772 23.3161C13.8853 23.2761 13.9012 23.2201 13.9253 23.1481C13.9412 23.0681 13.9613 22.9921 13.9853 22.9201V22.9321C14.1053 22.5321 14.2492 22.184 14.4172 21.8881C14.5772 21.584 14.7332 21.312 14.8853 21.0721C15.0452 20.8321 15.1973 20.6161 15.3413 20.4241C15.4853 20.2241 15.6253 20.0441 15.7613 19.8841C15.9933 19.5961 16.2053 19.34 16.3973 19.1161C16.5893 18.892 16.7533 18.708 16.8892 18.5641L16.9853 18.4801C17.0413 18.4241 17.0853 18.3761 17.1173 18.3361C17.1493 18.2961 17.1852 18.2561 17.2253 18.2161C17.4093 18.0241 17.5532 17.8761 17.6572 17.7721C17.7612 17.6681 17.8813 17.5561 18.0173 17.4361ZM14.8133 23.2801C14.8053 23.2801 14.8013 23.2841 14.8013 23.2921C14.8013 23.2921 14.7973 23.2921 14.7893 23.2921C14.8053 23.2921 14.8133 23.288 14.8133 23.2801Z" fill="#F44647"/>
<path d="M53.5217 17.4121C53.6977 17.284 53.8857 17.2201 54.0857 17.2201C54.3257 17.2201 54.5297 17.3161 54.6977 17.5081C54.8017 17.6361 54.8537 17.7921 54.8537 17.9761C54.8537 18.0961 54.8217 18.2201 54.7577 18.3481C54.7017 18.4761 54.6177 18.5841 54.5057 18.6721C54.4657 18.7121 54.4297 18.7361 54.3977 18.7441C54.3817 18.7521 54.3697 18.7601 54.3617 18.7681C54.3617 18.7761 54.3537 18.7841 54.3377 18.7921L54.2297 18.864C54.1497 18.9121 54.0297 18.9841 53.8697 19.0801C53.7097 19.1761 53.4857 19.3241 53.1977 19.5241V19.5361L53.0897 19.6081C53.0817 19.6161 53.0697 19.6241 53.0537 19.6321C53.0377 19.6401 53.0257 19.6481 53.0177 19.6561C52.9937 19.6721 52.9657 19.6921 52.9337 19.7161C52.9017 19.7321 52.8777 19.7481 52.8617 19.7641C52.5817 19.9561 52.2297 20.1841 51.8057 20.4481C51.3817 20.7041 50.8497 21.0041 50.2097 21.3481H50.2217C49.8617 21.5401 49.4537 21.7441 48.9977 21.9601C48.5497 22.1761 48.0417 22.4001 47.4737 22.6321C46.9217 22.8561 46.3257 23.0761 45.6857 23.2921C45.0457 23.5081 44.3457 23.7041 43.5857 23.8801C42.8417 24.048 42.1177 24.1721 41.4137 24.2521C40.7177 24.34 40.0337 24.3881 39.3617 24.3961C38.6897 24.3961 38.0577 24.3521 37.4657 24.2641C36.8817 24.1841 36.3377 24.0401 35.8337 23.8321L35.8457 23.8441C35.5577 23.7321 35.2937 23.5961 35.0537 23.4361C34.8137 23.2761 34.6017 23.0881 34.4177 22.8721C34.2337 22.6561 34.1017 22.3921 34.0217 22.0801V22.1041C33.9737 21.9681 33.9417 21.8281 33.9257 21.6841C33.9177 21.5401 33.9177 21.4041 33.9257 21.2761C33.9417 20.8441 34.0017 20.4401 34.1057 20.0641C34.2177 19.68 34.3497 19.3441 34.5017 19.0561C34.6537 18.7761 34.8217 18.5161 35.0057 18.2761C35.1977 18.0361 35.3737 17.8401 35.5337 17.6881C35.6697 17.5601 35.8217 17.4401 35.9897 17.3281C36.1577 17.2161 36.3217 17.112 36.4817 17.0161C36.6897 16.896 36.8577 16.8081 36.9857 16.7521C37.1137 16.6881 37.2137 16.6401 37.2857 16.6081C37.3177 16.5761 37.3697 16.5561 37.4417 16.5481C37.5617 16.5161 37.6817 16.5081 37.8017 16.5241C37.9217 16.5321 38.0297 16.5641 38.1257 16.6201C38.2217 16.6761 38.3017 16.7481 38.3657 16.8361C38.4297 16.9241 38.4737 17.0201 38.4977 17.1241C38.5377 17.3241 38.4977 17.5161 38.3777 17.7001C38.2657 17.8841 38.1017 18.0121 37.8857 18.0841L37.9097 18.0601C37.8937 18.0681 37.8657 18.08 37.8257 18.0961C37.7937 18.1121 37.7697 18.1241 37.7537 18.1321C37.7457 18.1321 37.7217 18.1401 37.6817 18.1561C37.6417 18.1641 37.6057 18.1761 37.5737 18.1921C37.5497 18.2001 37.5217 18.2081 37.4897 18.2161C37.4657 18.2241 37.4337 18.236 37.3937 18.2521C37.3297 18.2761 37.2577 18.3041 37.1777 18.3361C37.0977 18.368 37.0137 18.4121 36.9257 18.4681H36.9377C36.8177 18.5401 36.6857 18.6281 36.5417 18.7321C36.4057 18.8281 36.2697 18.9521 36.1337 19.1041C35.9817 19.2641 35.8337 19.4561 35.6897 19.6801C35.5537 19.9041 35.4377 20.1601 35.3417 20.4481C35.2537 20.7681 35.1977 21.1241 35.1737 21.5161C35.1657 21.6521 35.1937 21.792 35.2577 21.9361C35.3297 22.0721 35.4337 22.1961 35.5697 22.3081C35.7377 22.452 35.9297 22.5761 36.1457 22.6801C36.3697 22.7841 36.6097 22.8721 36.8657 22.9441C37.1217 23.0241 37.4057 23.0881 37.7177 23.1361C38.0297 23.1841 38.3537 23.2161 38.6897 23.2321C38.8017 23.2401 38.9257 23.2481 39.0617 23.2561C39.2057 23.2561 39.3337 23.2561 39.4457 23.2561C40.0457 23.2561 40.6697 23.2161 41.3177 23.1361C41.9657 23.0561 42.6377 22.9361 43.3337 22.7761C43.9897 22.6241 44.6057 22.4521 45.1817 22.2601C45.7577 22.0681 46.2977 21.8681 46.8017 21.6601C47.2657 21.4761 47.7057 21.2801 48.1217 21.0721C48.5377 20.864 48.9177 20.6681 49.2617 20.4841L49.2497 20.496C49.8977 20.136 50.4497 19.8041 50.9057 19.5001C51.3617 19.1881 51.7217 18.9321 51.9857 18.7321C52.2417 18.5241 52.4577 18.3441 52.6337 18.1921C52.8097 18.0401 52.9537 17.9121 53.0657 17.8081C53.0817 17.792 53.0977 17.7761 53.1137 17.76C53.1377 17.744 53.1617 17.7281 53.1857 17.7121C53.2497 17.6481 53.3057 17.5921 53.3537 17.5441C53.4017 17.496 53.4577 17.452 53.5217 17.4121Z" fill="#F44647"/>
<path d="M74.5496 17.4841C74.6856 17.6681 74.6936 17.9001 74.5736 18.1801C74.4536 18.4521 74.2416 18.7041 73.9376 18.9361C73.9056 18.9601 73.8736 18.98 73.8416 18.996C73.8096 19.0121 73.7816 19.028 73.7576 19.0441C73.7416 19.0601 73.7216 19.0721 73.6976 19.0801C73.6816 19.0801 73.6656 19.0881 73.6496 19.1041C73.6096 19.1281 73.5576 19.16 73.4936 19.2001C73.4376 19.232 73.3616 19.2801 73.2656 19.3441C73.1696 19.4081 73.0496 19.4881 72.9056 19.5841C72.7696 19.6721 72.5976 19.7841 72.3896 19.9201L72.4016 19.9081C72.4176 19.9001 72.4176 19.9001 72.4016 19.9081C72.3936 19.9081 72.3776 19.916 72.3536 19.9321C72.3296 19.9401 72.3016 19.9561 72.2696 19.9801C72.2456 19.9961 72.2256 20.0081 72.2096 20.0161C72.1856 20.0321 72.1736 20.0401 72.1736 20.0401C72.1736 20.0321 72.1296 20.0601 72.0416 20.1241C71.7216 20.3241 71.3256 20.5641 70.8536 20.8441C70.3896 21.1241 69.8216 21.444 69.1496 21.8041C68.7416 22.0201 68.2936 22.2441 67.8056 22.4761C67.3176 22.7081 66.7856 22.9361 66.2096 23.1601C65.6176 23.3841 64.9656 23.6 64.2536 23.8081C63.5416 24.0161 62.7536 24.1521 61.8896 24.2161C61.7696 24.2241 61.6456 24.2281 61.5176 24.2281C61.3896 24.236 61.2616 24.2401 61.1336 24.2401C60.7576 24.2401 60.3736 24.2121 59.9816 24.1561C59.5896 24.1081 59.2016 24.0081 58.8176 23.8561C58.6896 23.8001 58.5576 23.7361 58.4216 23.6641C58.2856 23.5921 58.1456 23.5081 58.0016 23.4121C57.9376 23.3481 57.8616 23.2761 57.7736 23.1961C57.6936 23.1161 57.6176 23.0321 57.5456 22.9441C57.5056 22.9041 57.4776 22.84 57.4616 22.7521C57.4376 22.6881 57.4216 22.6321 57.4136 22.5841C57.4056 22.5361 57.4016 22.4841 57.4016 22.4281C57.4016 22.2761 57.4256 22.1321 57.4736 21.9961C57.5136 21.8921 57.5656 21.7921 57.6296 21.6961C57.7016 21.5921 57.7696 21.4921 57.8336 21.3961C57.4096 21.6121 57.0136 21.82 56.6456 22.0201C56.2856 22.212 55.9056 22.4201 55.5056 22.6441C55.0656 22.8761 54.5816 23.1561 54.0536 23.4841C53.9176 23.5561 53.7816 23.6361 53.6456 23.7241C53.5176 23.8041 53.3776 23.8961 53.2256 24.0001C53.1776 24.0401 53.1256 24.0761 53.0696 24.1081C53.0136 24.1401 52.9616 24.1761 52.9136 24.2161L52.9256 24.2041C52.9096 24.2201 52.8776 24.2441 52.8296 24.2761C52.8056 24.2921 52.7856 24.3081 52.7696 24.3241C52.7616 24.3321 52.7536 24.3361 52.7456 24.3361C52.7376 24.3361 52.7336 24.3401 52.7336 24.3481C52.6936 24.3881 52.6616 24.416 52.6376 24.4321C52.6056 24.4561 52.5816 24.4721 52.5656 24.4801C52.5496 24.4881 52.5336 24.5 52.5176 24.5161C52.4856 24.548 52.4496 24.5761 52.4096 24.6001C52.3696 24.6321 52.3376 24.656 52.3136 24.6721L51.9896 24.6001C51.9576 24.5841 51.9376 24.5721 51.9296 24.5641L51.9176 24.5521C51.8296 24.5281 51.7256 24.4841 51.6056 24.4201L51.3296 24.1441C51.3296 24.104 51.3336 24.0641 51.3416 24.0241C51.3416 23.9921 51.3496 23.9561 51.3656 23.9161C51.6056 22.9961 51.9136 21.9881 52.2896 20.8921C52.6736 19.7881 53.1496 18.5401 53.7176 17.1481C54.3176 15.6841 54.8816 14.3561 55.4096 13.1641C55.9376 11.972 56.4216 10.8881 56.8616 9.91205C57.1496 9.27205 57.4296 8.65205 57.7016 8.05205C57.9816 7.45205 58.2296 6.91205 58.4456 6.43205C58.5016 6.31205 58.5576 6.19205 58.6136 6.07205C58.6696 5.95205 58.7216 5.84005 58.7696 5.73605L58.7576 5.74805C58.7656 5.72405 58.7776 5.69205 58.7936 5.65205C58.8096 5.61205 58.8256 5.58005 58.8416 5.55605C58.8576 5.50805 58.8776 5.45605 58.9016 5.40005C58.9336 5.34405 58.9616 5.29605 58.9856 5.25605L58.9736 5.29205C59.2456 4.70805 59.4816 4.20405 59.6816 3.78005C59.8816 3.35605 60.0456 3.00005 60.1736 2.71205C60.3096 2.42405 60.4176 2.20005 60.4976 2.04005C60.5776 1.87205 60.6336 1.75605 60.6656 1.69205C60.7456 1.52405 60.8416 1.37605 60.9536 1.24805C61.0656 1.11205 61.1816 1.00805 61.3016 0.93605C61.4216 0.856051 61.5416 0.80805 61.6616 0.792049C61.7816 0.76805 61.8936 0.78405 61.9976 0.84005V0.82805C62.2136 0.94805 62.3216 1.17605 62.3216 1.51205C62.3216 1.77605 62.2456 2.06805 62.0936 2.38805V2.37605C62.0776 2.42405 62.0536 2.47205 62.0216 2.52005C61.9976 2.56005 61.9696 2.61205 61.9376 2.67605C61.9216 2.70005 61.9056 2.72805 61.8896 2.76005C61.8736 2.79205 61.8456 2.85605 61.8056 2.95205C61.7576 3.04005 61.7016 3.14005 61.6376 3.25205C61.5816 3.36405 61.5096 3.50005 61.4216 3.66005C61.3416 3.81205 61.2456 4.00005 61.1336 4.22405C61.0216 4.44005 60.8896 4.70005 60.7376 5.00405C60.7216 5.04405 60.7056 5.07605 60.6896 5.10005C60.6816 5.12405 60.6656 5.14805 60.6416 5.17205C60.3856 5.66805 60.0856 6.26405 59.7416 6.96005C59.4056 7.64805 59.0096 8.47205 58.5536 9.43205C58.0656 10.4481 57.5096 11.6281 56.8856 12.9721C56.2616 14.3081 55.5776 15.8561 54.8336 17.6161C54.4816 18.4401 54.1736 19.2001 53.9096 19.8961C53.6456 20.5921 53.4056 21.2521 53.1896 21.8761V21.8641C53.1336 22.0241 53.0776 22.1841 53.0216 22.3441C52.9656 22.4961 52.9136 22.6521 52.8656 22.8121C53.0736 22.6761 53.2736 22.5481 53.4656 22.4281C53.6656 22.3001 53.8496 22.18 54.0176 22.0681C54.0576 22.0441 54.0976 22.0201 54.1376 21.9961C54.1856 21.9641 54.2296 21.9361 54.2696 21.9121H54.2576C54.3056 21.8801 54.3536 21.8521 54.4016 21.8281C54.4176 21.8201 54.4336 21.8081 54.4496 21.7921C54.4656 21.7761 54.4816 21.764 54.4976 21.7561C54.5296 21.74 54.5696 21.7241 54.6176 21.7081C54.6656 21.6841 54.7176 21.6521 54.7736 21.6121C54.7896 21.6041 54.8096 21.5881 54.8336 21.5641C54.9216 21.5081 55.0056 21.4561 55.0856 21.4081C55.1736 21.3601 55.2616 21.3081 55.3496 21.2521C55.4936 21.1641 55.6376 21.0801 55.7816 21.0001C55.9336 20.9121 56.0736 20.8321 56.2016 20.7601C56.6976 20.4721 57.1936 20.1841 57.6896 19.8961C58.1936 19.6081 58.7256 19.316 59.2856 19.0201C59.5736 18.868 59.8776 18.708 60.1976 18.5401C60.5256 18.3721 60.8776 18.1961 61.2536 18.0121L61.8296 17.7241C61.8856 17.7001 61.9376 17.6761 61.9856 17.6521C62.0416 17.628 62.0976 17.6 62.1536 17.5681C62.2096 17.5441 62.2656 17.5201 62.3216 17.496C62.3776 17.4641 62.4336 17.4361 62.4896 17.4121L62.5376 17.4001C62.5136 17.4001 62.5096 17.3961 62.5256 17.3881L62.5376 17.3761C62.5936 17.3361 62.6496 17.3041 62.7056 17.2801C62.7616 17.2481 62.8136 17.2121 62.8616 17.1721L63.0896 17.0041C63.1536 16.9641 63.2456 16.9041 63.3656 16.8241C63.4856 16.7441 63.5696 16.6841 63.6176 16.6441C63.6416 16.6761 63.7096 16.7041 63.8216 16.7281C63.9336 16.7521 64.0536 16.784 64.1816 16.8241C64.3176 16.8561 64.4416 16.904 64.5536 16.9681C64.6656 17.024 64.7296 17.1121 64.7456 17.2321C64.7616 17.3441 64.7136 17.4921 64.6016 17.6761C64.4896 17.8601 64.2776 18.0881 63.9656 18.3601L63.8216 18.3721C63.6856 18.4441 63.5456 18.5161 63.4016 18.5881C63.2576 18.6521 63.1176 18.7161 62.9816 18.7801C62.5016 19.1161 62.0296 19.4481 61.5656 19.7761C61.1096 20.104 60.7176 20.4001 60.3896 20.6641C60.2056 20.8001 60.0216 20.9481 59.8376 21.1081C59.6616 21.2681 59.4896 21.4281 59.3216 21.5881V21.5761C59.1856 21.7041 59.0536 21.8361 58.9256 21.9721C58.8056 22.1081 58.7096 22.2441 58.6376 22.3801C58.7016 22.444 58.7816 22.5001 58.8776 22.5481C59.0296 22.6441 59.1856 22.7241 59.3456 22.7881C59.5136 22.8441 59.6736 22.892 59.8256 22.9321C60.2176 23.0201 60.6536 23.0641 61.1336 23.0641C61.2696 23.0641 61.4056 23.0601 61.5416 23.0521C61.6856 23.0441 61.8376 23.0321 61.9976 23.0161C62.6536 22.944 63.2656 22.8281 63.8336 22.6681C64.4016 22.5001 64.9296 22.3201 65.4176 22.1281C65.9056 21.9441 66.3576 21.7561 66.7736 21.5641C67.1896 21.364 67.5656 21.1721 67.9016 20.9881H67.8896C68.5776 20.6201 69.1576 20.288 69.6296 19.9921C70.1096 19.688 70.4976 19.4361 70.7936 19.2361C71.1376 19.0041 71.4256 18.8041 71.6576 18.6361C71.8896 18.4601 72.0856 18.3121 72.2456 18.1921C72.2696 18.1761 72.2976 18.1521 72.3296 18.1201C72.4416 18.0401 72.5496 17.9641 72.6536 17.8921C72.7576 17.8201 72.8656 17.7401 72.9776 17.6521C73.3456 17.3801 73.6896 17.2441 74.0096 17.2441C74.2496 17.2441 74.4296 17.3241 74.5496 17.4841ZM57.4616 22.7161V22.7281L57.4496 22.6801C57.4496 22.6881 57.4496 22.6961 57.4496 22.7041C57.4576 22.7041 57.4616 22.7081 57.4616 22.7161Z" fill="#F44647"/>
<path d="M89.6874 17.3161C89.9114 17.2281 90.1274 17.2201 90.3354 17.2921C90.5514 17.3641 90.7074 17.5 90.8034 17.7001C90.8914 17.9001 90.8914 18.1081 90.8034 18.3241C90.7234 18.5321 90.5674 18.6881 90.3354 18.7921C90.3114 18.8001 90.2754 18.812 90.2274 18.8281C90.1794 18.8361 90.1474 18.8441 90.1314 18.8521H90.0954C90.0554 18.8681 89.9954 18.8881 89.9154 18.9121C89.8354 18.9361 89.7114 18.98 89.5434 19.0441C89.3834 19.108 89.1674 19.1881 88.8954 19.2841C88.6234 19.3801 88.3074 19.4881 87.9474 19.6081C87.5634 19.7361 87.1074 19.8841 86.5794 20.0521C86.0514 20.2121 85.4274 20.3841 84.7074 20.5681C84.6194 20.5921 84.5194 20.6201 84.4074 20.6521C84.3034 20.6761 84.2034 20.7001 84.1074 20.7241C83.8034 20.8041 83.4674 20.892 83.0994 20.9881C82.7394 21.076 82.3674 21.156 81.9834 21.2281C81.4714 21.3241 80.9074 21.4081 80.2914 21.4801C79.6754 21.5521 79.0234 21.5801 78.3354 21.5641C77.9034 21.5561 77.5274 21.5441 77.2074 21.5281C76.8954 21.5121 76.6194 21.4961 76.3794 21.4801C76.3554 21.4801 76.3274 21.4801 76.2954 21.4801C76.2634 21.4721 76.2394 21.4681 76.2234 21.4681C76.1594 21.4601 76.1194 21.4561 76.1034 21.4561C76.0954 21.4561 76.0714 21.4561 76.0314 21.4561C76.0234 21.4641 76.0154 21.4721 76.0074 21.4801C76.0074 21.4881 76.0034 21.4961 75.9954 21.5041C75.9714 21.5281 75.9554 21.548 75.9474 21.5641C75.9234 21.5881 75.9074 21.608 75.8994 21.6241C75.8834 21.6401 75.8674 21.656 75.8514 21.6721C75.8434 21.6881 75.8314 21.7041 75.8154 21.7201C75.7994 21.7361 75.7794 21.7561 75.7554 21.7801C75.7394 21.8041 75.7234 21.8241 75.7074 21.8401C75.5634 22.0001 75.3954 22.1881 75.2034 22.4041C75.0114 22.6201 74.8154 22.8241 74.6154 23.0161V23.0041C74.4714 23.1401 74.2954 23.2921 74.0874 23.4601C73.8874 23.628 73.6714 23.7801 73.4394 23.9161H73.4514C73.1954 24.0841 72.8914 24.2241 72.5394 24.3361H72.5514C72.4634 24.3681 72.3714 24.392 72.2754 24.4081C72.1874 24.4321 72.0874 24.4481 71.9754 24.4561C71.9434 24.4641 71.9034 24.4681 71.8554 24.4681C71.8074 24.4681 71.7754 24.4681 71.7594 24.4681C71.7274 24.4681 71.6954 24.4681 71.6634 24.4681C71.6314 24.4681 71.5994 24.4641 71.5674 24.4561C71.4074 24.4401 71.2594 24.3961 71.1234 24.3241C70.8594 24.1961 70.6514 24.0201 70.4994 23.7961C70.3394 23.5641 70.2274 23.3361 70.1634 23.1121V23.1241C70.0994 22.916 70.0594 22.7281 70.0434 22.5601C70.0274 22.3841 70.0154 22.212 70.0074 22.0441C70.0074 21.8601 70.0154 21.6881 70.0314 21.5281C70.0394 21.3681 70.0514 21.2201 70.0674 21.0841C70.0834 20.9561 70.1074 20.8241 70.1394 20.6881C70.1634 20.5521 70.1994 20.4081 70.2474 20.2561V20.2681C70.3274 19.9801 70.4274 19.7241 70.5474 19.5001C70.6594 19.2681 70.7834 19.0601 70.9194 18.8761C71.0714 18.6841 71.2234 18.5201 71.3754 18.3841C71.5194 18.2401 71.6634 18.1201 71.8074 18.0241L71.7954 18.0361C72.0834 17.8361 72.3434 17.6881 72.5754 17.5921C72.8074 17.4961 73.0034 17.42 73.1634 17.364C73.3474 17.3081 73.4794 17.2721 73.5594 17.2561C73.6474 17.232 73.7114 17.216 73.7514 17.208C73.8794 17.184 74.0034 17.1881 74.1234 17.2201C74.2434 17.2521 74.3474 17.3041 74.4354 17.3761C74.5314 17.4481 74.6074 17.5361 74.6634 17.6401C74.7194 17.7361 74.7474 17.8441 74.7474 17.9641C74.7474 18.1721 74.6794 18.3561 74.5434 18.5161C74.4074 18.6681 74.2354 18.764 74.0274 18.8041C74.0114 18.8041 73.9914 18.8081 73.9674 18.8161C73.9434 18.8161 73.9234 18.8161 73.9074 18.8161H73.8954C73.8794 18.8241 73.8554 18.8281 73.8234 18.8281C73.7994 18.8281 73.7754 18.8281 73.7514 18.8281C73.7354 18.8281 73.7154 18.8321 73.6914 18.8401C73.6754 18.8401 73.6594 18.8401 73.6434 18.8401C73.6354 18.8401 73.6314 18.8441 73.6314 18.8521C73.6314 18.8521 73.6194 18.8521 73.5954 18.8521C73.5074 18.8681 73.3994 18.9001 73.2714 18.9481C73.1514 18.9881 73.0314 19.028 72.9114 19.0681L72.9234 19.0561C72.8354 19.0961 72.7354 19.1481 72.6234 19.2121C72.5194 19.2681 72.4114 19.344 72.2994 19.4401C72.1874 19.528 72.0754 19.6361 71.9634 19.7641C71.8594 19.8921 71.7634 20.0521 71.6754 20.2441C71.5714 20.4361 71.4914 20.6601 71.4354 20.9161C71.3794 21.1721 71.3354 21.452 71.3034 21.7561C71.2794 21.924 71.2674 22.0681 71.2674 22.1881C71.2674 22.3401 71.2834 22.4961 71.3154 22.6561C71.3314 22.7761 71.3634 22.8921 71.4114 23.0041C71.4594 23.1161 71.5314 23.1961 71.6274 23.2441C71.6834 23.2681 71.7474 23.2801 71.8194 23.2801C71.8914 23.2801 71.9674 23.2721 72.0474 23.2561C72.1274 23.232 72.2114 23.2041 72.2994 23.1721C72.4434 23.1241 72.5754 23.0681 72.6954 23.0041C72.8234 22.9321 72.9394 22.864 73.0434 22.8001C73.2354 22.6721 73.4154 22.524 73.5834 22.3561C73.7594 22.1881 73.9234 22.0241 74.0754 21.8641C74.2594 21.6641 74.4074 21.5041 74.5194 21.3841C74.6314 21.264 74.7114 21.1521 74.7594 21.0481C74.8234 20.9201 74.8994 20.7761 74.9874 20.6161C75.0754 20.4561 75.1914 20.3161 75.3354 20.1961C75.4874 20.076 75.6714 19.9961 75.8874 19.9561C76.1114 19.916 76.3874 19.9561 76.7154 20.0761H77.0034C77.0514 20.0761 77.0994 20.0801 77.1474 20.0881C77.2034 20.0881 77.2594 20.0881 77.3154 20.0881C77.4434 20.0881 77.5794 20.0881 77.7234 20.0881C77.8674 20.0881 78.0194 20.0921 78.1794 20.1C78.3634 20.108 78.5874 20.1161 78.8514 20.1241C79.1234 20.1241 79.3794 20.1241 79.6194 20.1241C80.2434 20.1161 80.7834 20.0881 81.2394 20.0401C81.7034 19.9841 82.1154 19.924 82.4754 19.8601C82.8354 19.7961 83.1794 19.7281 83.5074 19.6561C83.8434 19.5841 84.1714 19.504 84.4914 19.416C84.7314 19.344 84.9754 19.2681 85.2234 19.1881C85.4794 19.1081 85.7274 19.0281 85.9674 18.9481C86.2074 18.8601 86.4314 18.7801 86.6394 18.7081C86.8554 18.6281 87.0434 18.556 87.2034 18.4921C87.4834 18.3801 87.7194 18.284 87.9114 18.2041C88.1034 18.1161 88.2794 18.0321 88.4394 17.9521C88.4554 17.9441 88.4794 17.9321 88.5114 17.916C88.5434 17.9001 88.5754 17.8841 88.6074 17.8681C88.7434 17.8041 88.8594 17.7481 88.9554 17.7001C89.0594 17.6441 89.1474 17.5961 89.2194 17.5561H89.2314C89.3114 17.5161 89.3834 17.4801 89.4474 17.4481C89.5114 17.4081 89.5874 17.3681 89.6754 17.3281L89.6874 17.3161Z" fill="#F44647"/>
<path d="M108.245 17.5681C108.317 17.656 108.349 17.7681 108.341 17.9041C108.333 18.0321 108.289 18.1681 108.209 18.312C108.137 18.4561 108.033 18.604 107.897 18.7561C107.761 18.9 107.597 19.0361 107.405 19.1641C107.317 19.2201 107.213 19.284 107.093 19.3561C106.973 19.4201 106.797 19.5201 106.565 19.6561C106.341 19.7841 106.021 19.9601 105.605 20.1841C105.197 20.4081 104.681 20.66 104.057 20.9401C103.409 21.236 102.601 21.576 101.633 21.9601C100.673 22.3361 99.5171 22.7121 98.1651 23.0881H98.1771C97.4811 23.2881 96.7131 23.4881 95.8731 23.6881C95.0411 23.8881 94.1931 24.0681 93.3291 24.2281C93.2651 24.2441 93.2171 24.2521 93.1851 24.2521C93.1691 24.2521 93.1451 24.2521 93.1131 24.2521C93.0891 24.26 93.0691 24.2641 93.0531 24.2641C93.0291 24.2721 93.0091 24.2761 92.9931 24.2761C92.9771 24.2761 92.9611 24.2801 92.9451 24.2881C92.8971 24.2961 92.8531 24.3041 92.8131 24.3121C92.7811 24.3201 92.7371 24.3281 92.6811 24.3361C92.6491 24.3521 92.6091 24.3641 92.5611 24.3721C92.5131 24.3881 92.4691 24.4041 92.4291 24.4201L92.3211 24.4561C92.3051 24.4641 92.2811 24.4721 92.2491 24.4801C92.2251 24.4961 92.1811 24.5121 92.1171 24.5281C92.1091 24.5281 92.0971 24.5281 92.0811 24.5281C92.0651 24.5361 92.0491 24.5401 92.0331 24.5401L91.5291 23.9401C91.5051 23.948 91.4771 23.9081 91.4451 23.8201C91.4211 23.7321 91.4211 23.6361 91.4451 23.5321C91.4691 23.4281 91.5291 23.3361 91.6251 23.2561C91.7211 23.1681 91.8771 23.1281 92.0931 23.1361C92.1091 23.1361 92.1211 23.1361 92.1291 23.1361C92.1371 23.1281 92.1451 23.1241 92.1531 23.1241C92.2011 23.1161 92.2451 23.1121 92.2851 23.1121C92.3251 23.1041 92.3651 23.0961 92.4051 23.0881H92.4411C92.6731 22.9841 92.9051 22.8681 93.1371 22.7401C93.5531 22.5161 93.9931 22.2401 94.4571 21.9121C94.9211 21.576 95.3331 21.2241 95.6931 20.8561C95.8531 20.6721 95.9931 20.4841 96.1131 20.2921C96.2411 20.1001 96.3291 19.9001 96.3771 19.6921C96.3931 19.6121 96.4011 19.5201 96.4011 19.416C96.4011 19.2961 96.3771 19.1761 96.3291 19.0561C96.2891 18.9281 96.2371 18.8161 96.1731 18.7201C96.1331 18.6721 96.0971 18.632 96.0651 18.6C96.0331 18.5601 96.0091 18.5281 95.9931 18.5041C95.9531 18.4881 95.9411 18.4721 95.9571 18.4561C95.8931 18.4401 95.8331 18.4401 95.7771 18.4561C95.7291 18.4721 95.6771 18.4881 95.6211 18.5041C95.4291 18.5921 95.2451 18.6881 95.0691 18.7921C94.8931 18.8881 94.7331 18.9921 94.5891 19.1041C94.3411 19.2721 94.0891 19.4641 93.8331 19.6801C93.5771 19.8961 93.3211 20.1121 93.0651 20.3281L92.8491 20.5081C92.7051 20.6361 92.5571 20.7721 92.4051 20.9161C92.2531 21.0521 92.1091 21.1841 91.9731 21.3121C91.9011 21.3761 91.8211 21.444 91.7331 21.5161C91.6531 21.5881 91.5811 21.6561 91.5171 21.7201L91.4811 21.7561C91.4651 21.7721 91.4491 21.7841 91.4331 21.7921C91.4251 21.8001 91.4131 21.812 91.3971 21.8281C91.2771 21.9401 91.1611 22.0521 91.0491 22.1641C90.9451 22.2681 90.8371 22.3721 90.7251 22.4761C90.4451 22.7401 90.1651 22.9961 89.8851 23.2441C89.6131 23.4921 89.3291 23.732 89.0331 23.9641C89.0091 23.9801 88.9851 24.0001 88.9611 24.0241C88.9371 24.0481 88.9131 24.0681 88.8891 24.0841C88.8491 24.1081 88.8091 24.1361 88.7691 24.1681C88.7371 24.2001 88.7131 24.2241 88.6971 24.2401L88.6131 24.2521L88.5651 24.2761L88.5771 24.2641C88.5211 24.2961 88.4691 24.3241 88.4211 24.3481C88.3731 24.3801 88.3171 24.4041 88.2531 24.4201C88.1891 24.4201 88.1051 24.4121 88.0011 24.3961C87.9051 24.3881 87.8131 24.3521 87.7251 24.2881C87.6211 24.1841 87.5571 24.0961 87.5331 24.0241C87.5011 23.9601 87.4851 23.896 87.4851 23.8321C87.4611 23.6961 87.4651 23.5841 87.4971 23.4961C87.5051 23.4561 87.5171 23.4121 87.5331 23.3641C87.5411 23.3081 87.5531 23.2561 87.5691 23.2081C87.5851 23.1361 87.6051 23.0641 87.6291 22.9921C87.6531 22.9121 87.6731 22.8361 87.6891 22.7641C87.7051 22.7001 87.7171 22.6441 87.7251 22.5961C87.7331 22.548 87.7451 22.496 87.7611 22.4401C87.7691 22.4001 87.7771 22.364 87.7851 22.3321C87.7931 22.292 87.8011 22.2601 87.8091 22.2361C87.8171 22.2041 87.8251 22.1721 87.8331 22.1401C87.8491 22.1081 87.8651 22.0721 87.8811 22.0321C88.0811 21.4001 88.2771 20.788 88.4691 20.1961C88.6691 19.5961 88.8931 18.9641 89.1411 18.3001C89.1491 18.2281 89.1691 18.1441 89.2011 18.048C89.2331 17.952 89.2811 17.8561 89.3451 17.76L89.3211 17.7961C89.4651 17.4121 89.6211 17.0081 89.7891 16.5841C89.9571 16.1601 90.1371 15.7041 90.3291 15.2161C90.5291 14.7281 90.7491 14.2041 90.9891 13.6441C91.2291 13.0761 91.4931 12.4681 91.7811 11.8201C92.5411 10.1001 93.2131 8.62805 93.7971 7.40405C94.3811 6.17205 94.9091 5.13605 95.3811 4.29605L95.3691 4.30805L95.4051 4.23605C95.4131 4.22005 95.4211 4.20805 95.4291 4.20005C95.4371 4.19205 95.4451 4.18005 95.4531 4.16405L95.6091 3.90005C95.6971 3.74005 95.7851 3.58405 95.8731 3.43205C95.9611 3.28005 96.0531 3.13205 96.1491 2.98805C96.2771 2.78805 96.4131 2.58805 96.5571 2.38805C96.7091 2.18005 96.8931 1.96805 97.1091 1.75205C97.1731 1.69605 97.2331 1.64805 97.2891 1.60805C97.3531 1.56005 97.4171 1.51605 97.4811 1.47605C97.5931 1.40405 97.7211 1.36005 97.8651 1.34405C98.0171 1.32805 98.1571 1.34405 98.2851 1.39205C98.3971 1.43205 98.5051 1.49605 98.6091 1.58405C98.7211 1.67205 98.8131 1.76805 98.8851 1.87205C98.9971 2.05605 99.0651 2.24005 99.0891 2.42405C99.1131 2.56805 99.1251 2.73605 99.1251 2.92805C99.1251 3.15205 99.1091 3.36805 99.0771 3.57605C99.0451 3.78405 99.0091 3.98405 98.9691 4.17605C98.8731 4.60805 98.7571 5.03205 98.6211 5.44805C98.4851 5.86405 98.3451 6.25605 98.2011 6.62405C98.0651 6.98405 97.9171 7.34005 97.7571 7.69205C97.5971 8.03605 97.4491 8.36005 97.3131 8.66405C97.0491 9.24005 96.7651 9.80005 96.4611 10.3441C96.1571 10.8801 95.8811 11.364 95.6331 11.7961C95.1291 12.6601 94.6691 13.3961 94.2531 14.0041C93.8371 14.6121 93.4891 15.1081 93.2091 15.4921C92.9291 15.8761 92.6771 16.2081 92.4531 16.4881C92.2371 16.7681 92.0531 17.0001 91.9011 17.1841L91.7211 17.4001C91.6091 17.5361 91.4931 17.6721 91.3731 17.8081C91.2531 17.944 91.1251 18.0881 90.9891 18.2401C90.9171 18.3121 90.8411 18.3841 90.7611 18.4561C90.6891 18.5201 90.6171 18.5801 90.5451 18.6361C90.2571 19.3961 90.0051 20.0801 89.7891 20.6881C89.6851 20.9601 89.5851 21.2201 89.4891 21.4681C89.4011 21.708 89.3131 21.9481 89.2251 22.1881L89.4771 21.9721L89.8371 21.6481C89.9251 21.576 90.0091 21.5041 90.0891 21.4321C90.1691 21.3521 90.2531 21.2681 90.3411 21.1801V21.1921C90.3811 21.1521 90.4091 21.1241 90.4251 21.1081C90.4491 21.0841 90.4771 21.0601 90.5091 21.0361C90.6611 20.9001 90.8251 20.7521 91.0011 20.5921C91.1771 20.4321 91.3571 20.2761 91.5411 20.1241C91.7251 19.9561 91.9331 19.7721 92.1651 19.5721C92.4051 19.364 92.6411 19.1681 92.8731 18.9841H92.8611C93.0931 18.7921 93.3411 18.5961 93.6051 18.3961C93.8691 18.1881 94.1931 17.972 94.5771 17.7481C94.6651 17.7001 94.7611 17.6481 94.8651 17.5921C94.9691 17.5361 95.0651 17.4881 95.1531 17.4481C95.2651 17.4081 95.3811 17.3681 95.5011 17.3281C95.6291 17.2881 95.7811 17.272 95.9571 17.2801C96.0691 17.2801 96.1811 17.3001 96.2931 17.3401C96.4131 17.3721 96.5251 17.4321 96.6291 17.5201C96.6771 17.5601 96.7291 17.612 96.7851 17.6761C96.8491 17.732 96.9011 17.7801 96.9411 17.8201C97.0051 17.9081 97.0771 18.0081 97.1571 18.1201C97.2371 18.232 97.3091 18.348 97.3731 18.4681C97.4371 18.612 97.4891 18.7681 97.5291 18.9361C97.5691 19.104 97.5891 19.264 97.5891 19.416C97.5891 19.7201 97.5411 19.9921 97.4451 20.2321V20.2201C97.3571 20.4921 97.2371 20.7441 97.0851 20.9761C96.9411 21.2081 96.7771 21.4321 96.5931 21.6481C96.4731 21.784 96.3571 21.9081 96.2451 22.0201C96.1411 22.1241 96.0211 22.2321 95.8851 22.3441C95.9731 22.3201 96.0611 22.2961 96.1491 22.2721C96.2371 22.2481 96.3251 22.2241 96.4131 22.2001C97.6771 21.864 98.7931 21.5201 99.7611 21.1681C100.729 20.8161 101.577 20.4761 102.305 20.1481C103.009 19.844 103.613 19.5561 104.117 19.2841C104.621 19.0041 105.041 18.764 105.377 18.5641C105.657 18.3881 105.897 18.2361 106.097 18.1081C106.297 17.9721 106.441 17.8721 106.529 17.8081C106.705 17.688 106.881 17.5921 107.057 17.5201C107.233 17.448 107.397 17.4001 107.549 17.3761C107.701 17.3521 107.837 17.3561 107.957 17.3881C108.077 17.4121 108.173 17.472 108.245 17.5681ZM95.4891 6.78005C94.9611 7.93205 94.4211 9.14805 93.8691 10.4281C93.3251 11.7081 92.7611 13.0681 92.1771 14.5081C92.4411 14.1641 92.7291 13.7761 93.0411 13.3441C93.3611 12.9121 93.6931 12.4361 94.0371 11.916C94.3331 11.4521 94.6491 10.9361 94.9851 10.3681C95.3291 9.79205 95.6651 9.18405 95.9931 8.54405C96.1531 8.22405 96.3171 7.88405 96.4851 7.52405C96.6531 7.15605 96.8251 6.75605 97.0011 6.32405C97.1691 5.91605 97.3291 5.49605 97.4811 5.06405C97.6331 4.63205 97.7531 4.17605 97.8411 3.69605C97.8971 3.42405 97.9331 3.17205 97.9491 2.94005C97.9491 2.82005 97.9371 2.71205 97.9131 2.61605C97.8411 2.69605 97.7611 2.78805 97.6731 2.89205C97.5931 2.99605 97.5211 3.08805 97.4571 3.16805H97.4691C97.1091 3.69605 96.7691 4.26405 96.4491 4.87205C96.1371 5.47205 95.8211 6.10805 95.5011 6.78005H95.4891Z" fill="#F44647"/>
<path d="M149.348 17.5321C149.42 17.6201 149.448 17.7281 149.432 17.8561C149.424 17.9841 149.384 18.1201 149.312 18.2641C149.24 18.4081 149.14 18.5521 149.012 18.6961C148.884 18.84 148.732 18.9761 148.556 19.1041L148.364 19.2121H148.376C148.32 19.2521 148.232 19.3041 148.112 19.3681C148 19.4401 147.816 19.552 147.56 19.7041C147.312 19.848 146.972 20.0521 146.54 20.3161C146.516 20.3321 146.5 20.3441 146.492 20.3521C146.484 20.3521 146.468 20.3601 146.444 20.3761C146.42 20.3921 146.4 20.4001 146.384 20.4001C146.376 20.4001 146.368 20.4041 146.36 20.4121C146.16 20.5321 145.92 20.6721 145.64 20.8321C145.368 20.9841 145.068 21.1481 144.74 21.3241C144.412 21.5001 144.06 21.6841 143.684 21.8761C143.316 22.0681 142.932 22.2601 142.532 22.4521C142.276 22.5721 142 22.6921 141.704 22.8121C141.416 22.9241 141.112 23.0441 140.792 23.1721C140.48 23.2921 140.16 23.4241 139.832 23.5681C139.504 23.7041 139.18 23.8561 138.86 24.0241C138.572 24.1761 138.288 24.3201 138.008 24.4561C137.728 24.6 137.472 24.7121 137.24 24.7921C137.016 24.8801 136.82 24.9281 136.652 24.9361C136.492 24.944 136.384 24.8881 136.328 24.7681C136.272 24.6561 136.276 24.4721 136.34 24.2161C136.412 23.9601 136.564 23.6081 136.796 23.1601C136.812 23.1041 136.824 23.0641 136.832 23.0401C136.848 23.0161 136.864 22.9761 136.88 22.9201C137.008 22.5601 137.136 22.1921 137.264 21.8161C137.4 21.4321 137.536 21.0441 137.672 20.6521C137.696 20.5881 137.72 20.5241 137.744 20.4601C137.768 20.3881 137.792 20.3161 137.816 20.2441C137.952 19.8601 138.088 19.4641 138.224 19.0561C138.368 18.6481 138.512 18.2281 138.656 17.7961C138.696 17.6841 138.748 17.5281 138.812 17.3281C138.876 17.1281 138.94 16.9361 139.004 16.7521C138.652 17.0401 138.28 17.3321 137.888 17.6281C137.496 17.9241 137.084 18.2201 136.652 18.5161V18.5041C136.164 18.8401 135.648 19.1721 135.104 19.5001C134.568 19.8281 134.016 20.1481 133.448 20.4601V20.4481C133.064 20.6641 132.66 20.8841 132.236 21.1081C131.812 21.3321 131.368 21.5601 130.904 21.7921C130.816 21.8321 130.728 21.8761 130.64 21.9241C130.56 21.9721 130.476 22.0161 130.388 22.0561H130.4C130.192 22.1681 129.984 22.2761 129.776 22.3801C129.568 22.4841 129.348 22.5921 129.116 22.7041C129.116 22.712 129.112 22.7201 129.104 22.7281C129.104 22.7281 129.104 22.7321 129.104 22.7401V22.7281C129.072 22.8001 129.04 22.8801 129.008 22.9681C128.976 23.0481 128.94 23.1281 128.9 23.2081C128.884 23.2321 128.872 23.2561 128.864 23.2801C128.864 23.3041 128.856 23.3281 128.84 23.3521C128.832 23.3681 128.82 23.4001 128.804 23.4481C128.796 23.4641 128.788 23.4801 128.78 23.4961C128.772 23.5041 128.764 23.5161 128.756 23.5321C128.748 23.5401 128.74 23.5481 128.732 23.5561C128.732 23.5641 128.724 23.576 128.708 23.5921C128.644 23.7041 128.58 23.8161 128.516 23.9281C128.452 24.0401 128.364 24.1521 128.252 24.2641C128.204 24.3121 128.148 24.3521 128.084 24.3841C128.028 24.4241 127.948 24.4641 127.844 24.5041C127.764 24.5201 127.676 24.5201 127.58 24.5041C127.492 24.4961 127.416 24.4841 127.352 24.4681L127.28 24.4321C127.192 24.4081 127.112 24.3761 127.04 24.3361C126.96 24.3041 126.896 24.2681 126.848 24.2281C126.792 24.188 126.736 24.1401 126.68 24.0841C126.616 24.0361 126.564 23.9761 126.524 23.9041V23.9161C126.396 23.7081 126.368 23.4921 126.44 23.2681C126.488 23.1321 126.548 23.0201 126.62 22.9321C126.684 22.8361 126.756 22.7521 126.836 22.6801C127.02 22.5281 127.22 22.3881 127.436 22.2601C127.644 22.1321 127.856 22.0121 128.072 21.9001C128.072 21.8841 128.076 21.8761 128.084 21.8761C128.324 21.1481 128.544 20.424 128.744 19.7041C128.944 18.976 129.124 18.3041 129.284 17.6881C129.58 16.4881 129.84 15.3561 130.064 14.2921C130.288 13.2281 130.48 12.3241 130.64 11.5801C130.736 11.0921 130.828 10.6281 130.916 10.1881C131.004 9.74805 131.084 9.35605 131.156 9.01205C131.228 8.65205 131.296 8.30805 131.36 7.98005C131.432 7.64405 131.484 7.39605 131.516 7.23605C131.532 7.18005 131.544 7.13205 131.552 7.09205C131.56 7.05205 131.568 7.01205 131.576 6.97205C131.584 6.93205 131.588 6.90005 131.588 6.87605C131.596 6.85205 131.6 6.82005 131.6 6.78005C131.64 6.56405 131.7 6.36805 131.78 6.19205C131.86 6.01605 131.948 5.86405 132.044 5.73605C132.148 5.60805 132.256 5.51205 132.368 5.44805C132.48 5.38405 132.588 5.36405 132.692 5.38805C132.868 5.42805 133.004 5.54005 133.1 5.72405C133.204 5.90005 133.256 6.12405 133.256 6.39605C133.256 6.50805 133.248 6.62405 133.232 6.74405C133.224 6.86405 133.204 6.98405 133.172 7.10405L133.184 7.09205C133.168 7.14805 133.152 7.20805 133.136 7.27205C133.12 7.32805 133.104 7.39605 133.088 7.47605C133.072 7.52405 133.056 7.58005 133.04 7.64405C133.032 7.70005 133.02 7.76005 133.004 7.82405L133.016 7.81205C132.992 7.92405 132.96 8.05605 132.92 8.20805C132.88 8.36005 132.836 8.54005 132.788 8.74805V8.73605C132.732 8.96805 132.668 9.24805 132.596 9.57605C132.524 9.89605 132.44 10.2601 132.344 10.6681L132.356 10.656C132.34 10.7121 132.324 10.7681 132.308 10.8241C132.3 10.8721 132.288 10.9281 132.272 10.9921C132.264 11.0081 132.256 11.0401 132.248 11.088C132.24 11.128 132.228 11.18 132.212 11.2441V11.2321C132.14 11.5441 132.056 11.9041 131.96 12.3121C131.864 12.7201 131.76 13.1601 131.648 13.6321C131.536 14.0961 131.416 14.5841 131.288 15.0961C131.168 15.6 131.044 16.1121 130.916 16.6321C130.748 17.2801 130.564 17.9801 130.364 18.7321C130.164 19.4761 129.932 20.264 129.668 21.0961L129.716 21.0721C129.972 20.952 130.22 20.8281 130.46 20.7001C130.708 20.5721 130.948 20.4481 131.18 20.3281C131.612 20.1121 132.012 19.9081 132.38 19.7161C132.756 19.5161 133.124 19.3121 133.484 19.1041C134.18 18.7121 134.812 18.3281 135.38 17.9521C135.956 17.5761 136.484 17.2041 136.964 16.8361C137.596 16.3641 138.144 15.9201 138.608 15.5041C139.08 15.0881 139.496 14.68 139.856 14.2801C139.872 14.2401 139.884 14.2001 139.892 14.1601C139.9 14.1121 139.912 14.0681 139.928 14.0281C139.944 13.996 139.956 13.9681 139.964 13.9441C139.972 13.9201 139.984 13.8881 140 13.8481V13.8601C140.008 13.8361 140.016 13.812 140.024 13.7881C140.032 13.7561 140.04 13.7281 140.048 13.7041L140.264 13.0441V13.0561C140.28 13.0161 140.292 12.9761 140.3 12.9361C140.316 12.8881 140.332 12.8441 140.348 12.8041C140.564 12.1721 140.796 11.5041 141.044 10.8001C141.3 10.0881 141.56 9.38805 141.824 8.70005C141.96 8.34005 142.116 7.95205 142.292 7.53605C142.468 7.12005 142.64 6.72405 142.808 6.34805C142.856 6.24405 142.904 6.14005 142.952 6.03605C143 5.93205 143.052 5.82805 143.108 5.72405C143.124 5.70005 143.148 5.66005 143.18 5.60405C143.22 5.54805 143.268 5.48005 143.324 5.40005L143.3 5.42405C143.308 5.39205 143.34 5.34805 143.396 5.29205C143.404 5.28405 143.408 5.28005 143.408 5.28005C143.408 5.27205 143.412 5.26405 143.42 5.25605L143.372 5.31605C143.38 5.28405 143.42 5.23205 143.492 5.16005C143.516 5.12805 143.552 5.09205 143.6 5.05205C143.648 5.00405 143.712 4.96005 143.792 4.92005H143.816L143.9 4.90805H143.84C143.88 4.89205 143.928 4.87605 143.984 4.86005C144.048 4.84405 144.104 4.83605 144.152 4.83605C144.168 4.83605 144.196 4.84005 144.236 4.84805C144.276 4.84805 144.332 4.85605 144.404 4.87205L144.38 4.86005C144.444 4.87605 144.492 4.89205 144.524 4.90805C144.564 4.92405 144.6 4.94005 144.632 4.95605C144.64 4.96405 144.652 4.97605 144.668 4.99205C144.684 5.00005 144.696 5.00805 144.704 5.01605C144.752 5.06405 144.788 5.10405 144.812 5.13605C144.844 5.16005 144.868 5.18805 144.884 5.22005C144.876 5.22005 144.884 5.24805 144.908 5.30405C144.94 5.36005 144.964 5.40005 144.98 5.42405C144.988 5.44005 144.996 5.46405 145.004 5.49605C145.012 5.52005 145.024 5.55205 145.04 5.59205C145.04 5.60805 145.04 5.62005 145.04 5.62805C145.048 5.62805 145.052 5.63605 145.052 5.65205C145.06 5.66805 145.064 5.69205 145.064 5.72405C145.064 5.74805 145.064 5.76805 145.064 5.78405V5.98805C145.064 6.06005 145.06 6.12405 145.052 6.18005C145.052 6.23605 145.048 6.28805 145.04 6.33605V6.38405C145.032 6.46405 145.024 6.54805 145.016 6.63605C145.016 6.71605 145.008 6.79605 144.992 6.87605C144.984 6.90005 144.98 6.92805 144.98 6.96005C144.98 6.97605 144.976 7.00005 144.968 7.03205C144.968 7.06405 144.968 7.08805 144.968 7.10405C144.872 7.70405 144.748 8.26805 144.596 8.79605C144.444 9.31605 144.288 9.78805 144.128 10.2121C143.96 10.6201 143.78 11.0041 143.588 11.364C143.396 11.7161 143.204 12.0481 143.012 12.3601C142.668 12.8881 142.324 13.364 141.98 13.7881C141.636 14.2041 141.268 14.6241 140.876 15.0481C140.86 15.0881 140.848 15.1201 140.84 15.1441C140.832 15.1681 140.824 15.1881 140.816 15.2041C140.808 15.2281 140.796 15.2681 140.78 15.3241C140.764 15.3721 140.752 15.4081 140.744 15.4321C140.576 15.9121 140.416 16.3681 140.264 16.8001C140.112 17.2321 139.96 17.6641 139.808 18.0961C139.656 18.528 139.504 18.9681 139.352 19.416C139.2 19.864 139.036 20.3441 138.86 20.8561C138.82 20.9761 138.776 21.1 138.728 21.2281C138.688 21.3481 138.648 21.4681 138.608 21.5881V21.5761C138.584 21.6561 138.556 21.7361 138.524 21.8161C138.5 21.8881 138.476 21.9601 138.452 22.0321C138.436 22.0881 138.416 22.1481 138.392 22.2121C138.376 22.2761 138.36 22.3321 138.344 22.3801C138.304 22.4841 138.268 22.5841 138.236 22.6801C138.212 22.7761 138.18 22.8721 138.14 22.9681C138.692 22.7521 139.216 22.5361 139.712 22.3201C140.208 22.1041 140.676 21.8921 141.116 21.6841C141.956 21.2761 142.688 20.9001 143.312 20.5561C143.936 20.2041 144.44 19.9081 144.824 19.6681C145.192 19.4361 145.524 19.2281 145.82 19.0441C146.116 18.8601 146.356 18.7001 146.54 18.5641C146.652 18.4921 146.748 18.424 146.828 18.3601C146.916 18.2961 147.004 18.2321 147.092 18.1681C147.132 18.1361 147.176 18.104 147.224 18.0721C147.272 18.0401 147.32 18.0081 147.368 17.9761L147.356 17.9881C147.396 17.9561 147.44 17.9241 147.488 17.8921C147.536 17.8601 147.584 17.8281 147.632 17.7961C147.8 17.6761 147.972 17.5801 148.148 17.5081C148.324 17.4281 148.488 17.3761 148.64 17.3521C148.8 17.3201 148.94 17.3201 149.06 17.3521C149.18 17.3761 149.276 17.4361 149.348 17.5321ZM127.508 23.1961C127.5 23.1961 127.496 23.1921 127.496 23.1841L127.22 23.5681C127.22 23.576 127.224 23.5801 127.232 23.5801L127.508 23.1961Z" fill="#F44647"/>
<path d="M148.072 17.4361C148.272 17.2761 148.484 17.1961 148.708 17.1961C148.82 17.1961 148.928 17.2201 149.032 17.2681C149.144 17.3161 149.24 17.3841 149.32 17.4721C149.448 17.6401 149.488 17.84 149.44 18.0721C149.4 18.2961 149.28 18.496 149.08 18.6721C149.056 18.68 149.036 18.6921 149.02 18.7081C149.004 18.7241 148.988 18.7361 148.972 18.7441C148.964 18.7521 148.952 18.7601 148.936 18.7681C148.896 18.7921 148.832 18.8361 148.744 18.9001C148.656 18.9641 148.532 19.0601 148.372 19.1881L148.384 19.1761C148.232 19.3041 148.044 19.4721 147.82 19.6801C147.604 19.8801 147.344 20.132 147.04 20.4361L146.992 20.4841H147.004C146.86 20.6441 146.704 20.8241 146.536 21.0241C146.376 21.2161 146.22 21.416 146.068 21.6241V21.6121C145.932 21.8121 145.788 22.0401 145.636 22.2961C145.484 22.5441 145.348 22.8281 145.228 23.1481C145.412 23.0601 145.608 22.9521 145.816 22.8241C146.024 22.6961 146.236 22.5641 146.452 22.4281C146.948 22.1161 147.464 21.7721 148 21.3961C148.016 21.3801 148.028 21.3721 148.036 21.3721C148.052 21.3641 148.068 21.3521 148.084 21.3361C148.204 21.24 148.32 21.1561 148.432 21.0841L148.648 20.9281C148.664 20.9121 148.684 20.8961 148.708 20.8801C148.732 20.8561 148.752 20.8361 148.768 20.8201L148.996 20.7961L149.536 20.8081L149.728 20.9521C149.744 20.9601 149.752 20.9681 149.752 20.9761C149.76 20.9841 149.772 20.9921 149.788 21.0001C149.812 21.0161 149.848 21.0401 149.896 21.0721C149.952 21.0961 150.064 21.156 150.232 21.2521C150.408 21.34 150.672 21.4761 151.024 21.6601C151.384 21.8361 151.884 22.0841 152.524 22.4041C152.732 22.4921 152.952 22.5801 153.184 22.6681C153.416 22.7481 153.656 22.8281 153.904 22.9081C154.128 22.972 154.392 23.0361 154.696 23.1001C155 23.1641 155.344 23.216 155.728 23.2561C155.8 23.264 155.884 23.2681 155.98 23.2681C156.076 23.2681 156.164 23.2681 156.244 23.2681C156.356 23.2681 156.488 23.264 156.64 23.2561C156.792 23.2481 156.948 23.2321 157.108 23.2081C157.364 23.1681 157.644 23.104 157.948 23.0161C158.26 22.9281 158.572 22.8081 158.884 22.6561C159.604 22.3201 160.232 21.976 160.768 21.6241C161.312 21.2721 161.796 20.944 162.22 20.6401C162.652 20.3281 163.032 20.0361 163.36 19.7641C163.696 19.4921 163.98 19.2521 164.212 19.0441C164.524 18.764 164.792 18.5081 165.016 18.2761C165.248 18.0441 165.42 17.872 165.532 17.76L165.628 17.6761C165.724 17.58 165.832 17.5081 165.952 17.4601C166.08 17.4041 166.204 17.3761 166.324 17.3761C166.412 17.3761 166.496 17.3921 166.576 17.4241C166.664 17.4481 166.744 17.4921 166.816 17.5561C166.976 17.6921 167.056 17.872 167.056 18.0961C167.056 18.216 167.028 18.34 166.972 18.4681C166.916 18.5961 166.832 18.7161 166.72 18.8281C166.688 18.8521 166.652 18.8841 166.612 18.9241C166.572 18.9561 166.508 19.0081 166.42 19.0801C166.34 19.1521 166.232 19.2441 166.096 19.3561C165.96 19.4681 165.78 19.6161 165.556 19.8001C165.34 19.9841 165.056 20.2121 164.704 20.4841C164.352 20.7481 163.948 21.0441 163.492 21.3721C163.268 21.5321 163.004 21.7081 162.7 21.9001C162.404 22.0921 162.08 22.2921 161.728 22.5001C161.376 22.7081 161 22.9201 160.6 23.1361C160.208 23.3441 159.804 23.5441 159.388 23.7361C158.964 23.9281 158.54 24.0801 158.116 24.1921C157.692 24.3041 157.308 24.3761 156.964 24.4081C156.852 24.4241 156.724 24.4321 156.58 24.4321C156.444 24.4401 156.32 24.4441 156.208 24.4441C156.024 24.4441 155.836 24.4361 155.644 24.4201C155.452 24.4121 155.28 24.4001 155.128 24.3841C154.68 24.3361 154.256 24.2681 153.856 24.1801C153.456 24.1001 153.104 24.0161 152.8 23.9281C152.496 23.8401 152.204 23.7481 151.924 23.6521C151.644 23.5561 151.34 23.4401 151.012 23.3041C150.852 23.232 150.68 23.1521 150.496 23.0641C150.32 22.9761 150.136 22.8761 149.944 22.7641L149.956 22.7761C149.94 22.7681 149.928 22.7641 149.92 22.7641C149.92 22.7561 149.912 22.7481 149.896 22.7401C149.808 22.6921 149.712 22.6401 149.608 22.5841C149.504 22.5281 149.404 22.4681 149.308 22.4041C149.268 22.3801 149.244 22.3681 149.236 22.3681C149.236 22.3601 149.212 22.34 149.164 22.3081C148.604 22.66 148.088 22.9721 147.616 23.2441C147.144 23.5081 146.72 23.7361 146.344 23.9281C146.176 24.0161 145.988 24.1041 145.78 24.1921C145.572 24.2801 145.36 24.3561 145.144 24.4201C145.064 24.4441 144.98 24.4601 144.892 24.4681C144.804 24.4761 144.712 24.4801 144.616 24.4801C144.512 24.4641 144.4 24.424 144.28 24.3601C144.176 24.3041 144.092 24.2281 144.028 24.1321C143.964 24.0441 143.924 23.944 143.908 23.8321L143.92 23.8561C143.904 23.76 143.9 23.6681 143.908 23.5801C143.916 23.4921 143.928 23.4001 143.944 23.3041L143.932 23.3161C143.94 23.2761 143.956 23.2201 143.98 23.1481C143.996 23.0681 144.016 22.9921 144.04 22.9201V22.9321C144.16 22.5321 144.304 22.184 144.472 21.8881C144.632 21.584 144.788 21.312 144.94 21.0721C145.1 20.8321 145.252 20.6161 145.396 20.4241C145.54 20.2241 145.68 20.0441 145.816 19.8841C146.048 19.5961 146.26 19.34 146.452 19.1161C146.644 18.892 146.808 18.708 146.944 18.5641L147.04 18.4801C147.096 18.4241 147.14 18.3761 147.172 18.3361C147.204 18.2961 147.24 18.2561 147.28 18.2161C147.464 18.0241 147.608 17.8761 147.712 17.7721C147.816 17.6681 147.936 17.5561 148.072 17.4361ZM144.868 23.2801C144.86 23.2801 144.856 23.2841 144.856 23.2921C144.856 23.2921 144.852 23.2921 144.844 23.2921C144.86 23.2921 144.868 23.288 144.868 23.2801Z" fill="#F44647"/>
<path d="M190.032 17.1961C190.272 17.1 190.5 17.0881 190.716 17.1601C190.94 17.2321 191.1 17.368 191.196 17.5681C191.244 17.6721 191.26 17.7801 191.244 17.8921C191.236 18.0041 191.204 18.1121 191.148 18.2161C191.092 18.3201 191.016 18.4161 190.92 18.5041C190.824 18.5841 190.712 18.6481 190.584 18.6961C190.56 18.7121 190.528 18.7241 190.488 18.7321C190.456 18.7321 190.424 18.74 190.392 18.7561C190.352 18.772 190.312 18.7841 190.272 18.7921C190.208 18.8081 190.124 18.8281 190.02 18.8521C189.916 18.8681 189.784 18.9041 189.624 18.9601C189.392 19.024 189.108 19.104 188.772 19.2001C188.436 19.288 188.028 19.3761 187.548 19.4641H187.56C187.328 19.5041 187.06 19.5441 186.756 19.5841C186.46 19.6161 186.12 19.6401 185.736 19.6561C185.704 19.6561 185.672 19.6601 185.64 19.6681C185.616 19.6681 185.588 19.6681 185.556 19.6681H185.376C185.24 19.6681 185.1 19.6641 184.956 19.6561C184.812 19.6481 184.676 19.6361 184.548 19.6201C184.428 19.6201 184.28 19.6001 184.104 19.5601C184.096 19.5601 184.088 19.5641 184.08 19.5721C184.056 19.5881 184.028 19.6081 183.996 19.6321C183.972 19.6561 183.948 19.6761 183.924 19.6921L183.804 19.7641C183.692 19.8281 183.584 19.896 183.48 19.9681C183.384 20.0401 183.28 20.1161 183.168 20.1961V20.1841L182.808 20.4361C182.528 20.6201 182.24 20.812 181.944 21.0121C181.648 21.2121 181.332 21.416 180.996 21.6241C180.74 21.784 180.452 21.9601 180.132 22.1521C179.82 22.3361 179.5 22.5121 179.172 22.6801C178.996 22.7681 178.816 22.8561 178.632 22.9441C178.448 23.0241 178.268 23.1 178.092 23.1721C177.892 23.2441 177.688 23.3121 177.48 23.3761C177.272 23.4401 177.032 23.4921 176.76 23.5321C176.672 23.5401 176.576 23.5441 176.472 23.5441C176.376 23.5441 176.284 23.5361 176.196 23.5201C176.084 23.5121 175.984 23.4921 175.896 23.4601C175.808 23.4281 175.72 23.3921 175.632 23.3521C175.472 23.2721 175.328 23.1801 175.2 23.0761C175.08 22.9721 174.972 22.8601 174.876 22.7401C174.716 22.5321 174.592 22.3321 174.504 22.1401C174.416 21.9401 174.348 21.7601 174.3 21.6001C174.164 21.1361 174.076 20.6721 174.036 20.2081C173.732 20.5121 173.38 20.8521 172.98 21.2281C172.588 21.5961 172.132 22.0121 171.612 22.4761C171.276 22.7561 170.948 23.0281 170.628 23.2921C170.316 23.5481 169.988 23.7841 169.644 24.0001C169.54 24.0641 169.44 24.1201 169.344 24.1681C169.256 24.2161 169.172 24.26 169.092 24.3001C168.964 24.3481 168.832 24.3881 168.696 24.4201C168.568 24.4601 168.396 24.4681 168.18 24.4441C167.996 24.4041 167.848 24.3361 167.736 24.2401C167.624 24.1521 167.524 24.0601 167.436 23.9641C167.34 23.8521 167.268 23.764 167.22 23.7001C167.172 23.6361 167.128 23.5721 167.088 23.5081C166.944 23.2281 166.816 22.9561 166.704 22.6921C166.6 22.4281 166.504 22.1681 166.416 21.9121V21.9241C166.352 21.7401 166.292 21.5561 166.236 21.3721C166.18 21.1881 166.132 21.0161 166.092 20.8561C166.084 20.8241 166.076 20.7961 166.068 20.7721C166.06 20.7401 166.052 20.708 166.044 20.6761L166.056 20.6881C165.912 20.1521 165.792 19.7041 165.696 19.3441C165.608 18.9841 165.552 18.7481 165.528 18.6361L165.54 18.6481C165.516 18.6161 165.504 18.5761 165.504 18.5281C165.488 18.4001 165.492 18.2761 165.516 18.1561C165.54 18.0361 165.576 17.9241 165.624 17.8201C165.68 17.7161 165.748 17.632 165.828 17.5681C165.916 17.496 166.012 17.4481 166.116 17.4241C166.34 17.3841 166.544 17.4521 166.728 17.6281C166.912 17.7961 167.032 18.0081 167.088 18.2641C167.096 18.2801 167.1 18.3041 167.1 18.3361C167.108 18.368 167.12 18.4361 167.136 18.5401C167.144 18.6361 167.164 18.7761 167.196 18.9601C167.228 19.1441 167.276 19.4241 167.34 19.8001C167.34 19.8241 167.344 19.8401 167.352 19.8481C167.352 19.8641 167.36 19.8801 167.376 19.8961C167.392 19.9521 167.404 20.0161 167.412 20.0881C167.42 20.1521 167.432 20.216 167.448 20.2801C167.464 20.368 167.48 20.4601 167.496 20.5561C167.512 20.6521 167.536 20.7561 167.568 20.8681C167.608 21.0441 167.664 21.2521 167.736 21.4921C167.808 21.732 167.9 22.004 168.012 22.3081L168.024 22.3201C168.08 22.4641 168.136 22.6041 168.192 22.7401C168.256 22.8681 168.324 22.9761 168.396 23.0641C168.444 23.128 168.464 23.1601 168.456 23.1601C168.472 23.1681 168.5 23.1641 168.54 23.1481C168.588 23.132 168.636 23.1121 168.684 23.0881H168.672C168.824 23.0081 168.988 22.9121 169.164 22.8001C169.348 22.68 169.536 22.5521 169.728 22.4161C169.92 22.2801 170.108 22.1401 170.292 21.9961C170.484 21.8521 170.664 21.7121 170.832 21.5761C171.544 20.9761 172.156 20.4241 172.668 19.9201C173.188 19.4161 173.628 18.9801 173.988 18.6121L173.952 18.6481C173.968 18.632 174 18.5961 174.048 18.5401C174.096 18.4761 174.128 18.4321 174.144 18.4081C174.12 18.416 174.1 18.416 174.084 18.4081C174.052 18.4081 174.036 18.392 174.036 18.3601L174.204 18.3721L174.552 18.0241C174.736 18.0721 174.876 18.132 174.972 18.2041C175.076 18.2761 175.148 18.3561 175.188 18.444C175.228 18.532 175.248 18.6281 175.248 18.7321C175.248 18.8281 175.244 18.924 175.236 19.0201C175.236 19.1 175.236 19.1801 175.236 19.2601C175.244 19.3321 175.252 19.4041 175.26 19.4761C175.276 19.6521 175.296 19.8201 175.32 19.9801C175.352 20.1321 175.38 20.2881 175.404 20.4481C175.436 20.5681 175.468 20.6961 175.5 20.8321C175.54 20.9681 175.588 21.1041 175.644 21.2401L175.632 21.2281C175.68 21.34 175.736 21.4521 175.8 21.5641C175.864 21.6681 175.94 21.7721 176.028 21.8761C176.092 21.9401 176.168 21.996 176.256 22.0441C176.344 22.084 176.452 22.0961 176.58 22.0801C176.764 22.0641 176.972 22.0201 177.204 21.9481C177.444 21.8761 177.696 21.7881 177.96 21.6841C178.304 21.5481 178.624 21.4121 178.92 21.2761C179.216 21.1321 179.484 21.0001 179.724 20.8801C179.756 20.864 179.792 20.848 179.832 20.8321C180.048 20.7201 180.26 20.604 180.468 20.4841C180.684 20.364 180.876 20.2521 181.044 20.1481C181.06 20.1401 181.08 20.1241 181.104 20.1C181.112 20.0921 181.12 20.0881 181.128 20.0881L181.116 20.1C181.348 19.9561 181.576 19.812 181.8 19.6681C182.024 19.5241 182.248 19.3761 182.472 19.2241V19.1881C182.472 19.1801 182.512 19.1521 182.592 19.1041C182.672 19.0481 182.784 18.9801 182.928 18.9001C183.08 18.8201 183.26 18.7321 183.468 18.6361C183.676 18.5401 183.912 18.4401 184.176 18.3361C184.272 18.3521 184.356 18.368 184.428 18.3841C184.508 18.392 184.572 18.4001 184.62 18.4081C184.748 18.4241 184.896 18.4361 185.064 18.444C185.232 18.444 185.372 18.4401 185.484 18.4321C185.716 18.416 185.96 18.392 186.216 18.3601C186.472 18.32 186.704 18.2801 186.912 18.2401C187.264 18.1601 187.6 18.076 187.92 17.9881C188.24 17.9001 188.484 17.8241 188.652 17.76C188.708 17.736 188.764 17.7121 188.82 17.6881C188.884 17.6641 188.936 17.6441 188.976 17.6281C189.112 17.5801 189.228 17.5401 189.324 17.5081C189.428 17.4681 189.516 17.4281 189.588 17.3881C189.66 17.3641 189.704 17.3441 189.72 17.3281C189.76 17.312 189.796 17.2961 189.828 17.2801C189.86 17.264 189.932 17.236 190.044 17.1961H190.032Z" fill="#F44647"/>
<path d="M210.886 17.4841C211.022 17.6681 211.03 17.9001 210.91 18.1801C210.79 18.4521 210.578 18.7041 210.274 18.9361C210.242 18.9601 210.21 18.98 210.178 18.996C210.146 19.0121 210.118 19.028 210.094 19.0441C210.078 19.0601 210.058 19.0721 210.034 19.0801C210.018 19.0801 210.002 19.0881 209.986 19.1041C209.946 19.1281 209.894 19.16 209.83 19.2001C209.774 19.232 209.698 19.2801 209.602 19.3441C209.506 19.4081 209.386 19.4881 209.242 19.5841C209.106 19.6721 208.934 19.7841 208.726 19.9201L208.738 19.9081C208.754 19.9001 208.754 19.9001 208.738 19.9081C208.73 19.9081 208.714 19.916 208.69 19.9321C208.666 19.9401 208.638 19.9561 208.606 19.9801C208.582 19.9961 208.562 20.0081 208.546 20.0161C208.522 20.0321 208.51 20.0401 208.51 20.0401C208.51 20.0321 208.466 20.0601 208.378 20.1241C208.058 20.3241 207.662 20.5641 207.19 20.8441C206.726 21.1241 206.158 21.444 205.486 21.8041C205.078 22.0201 204.63 22.2441 204.142 22.4761C203.654 22.7081 203.122 22.9361 202.546 23.1601C201.954 23.3841 201.302 23.6 200.59 23.8081C199.878 24.0161 199.09 24.1521 198.226 24.2161C198.106 24.2241 197.982 24.2281 197.854 24.2281C197.726 24.236 197.598 24.2401 197.47 24.2401C197.094 24.2401 196.71 24.2121 196.318 24.1561C195.926 24.1081 195.538 24.0081 195.154 23.8561C195.026 23.8001 194.894 23.7361 194.758 23.6641C194.622 23.5921 194.482 23.5081 194.338 23.4121C194.274 23.3481 194.198 23.2761 194.11 23.1961C194.03 23.1161 193.954 23.0321 193.882 22.9441C193.842 22.9041 193.814 22.84 193.798 22.7521C193.774 22.6881 193.758 22.6321 193.75 22.5841C193.742 22.5361 193.738 22.4841 193.738 22.4281C193.738 22.2761 193.762 22.1321 193.81 21.9961C193.85 21.8921 193.902 21.7921 193.966 21.6961C194.038 21.5921 194.106 21.4921 194.17 21.3961C193.746 21.6121 193.35 21.82 192.982 22.0201C192.622 22.212 192.242 22.4201 191.842 22.6441C191.402 22.8761 190.918 23.1561 190.39 23.4841C190.254 23.5561 190.118 23.6361 189.982 23.7241C189.854 23.8041 189.714 23.8961 189.562 24.0001C189.514 24.0401 189.462 24.0761 189.406 24.1081C189.35 24.1401 189.298 24.1761 189.25 24.2161L189.262 24.2041C189.246 24.2201 189.214 24.2441 189.166 24.2761C189.142 24.2921 189.122 24.3081 189.106 24.3241C189.098 24.3321 189.09 24.3361 189.082 24.3361C189.074 24.3361 189.07 24.3401 189.07 24.3481C189.03 24.3881 188.998 24.416 188.974 24.4321C188.942 24.4561 188.918 24.4721 188.902 24.4801C188.886 24.4881 188.87 24.5 188.854 24.5161C188.822 24.548 188.786 24.5761 188.746 24.6001C188.706 24.6321 188.674 24.656 188.65 24.6721L188.326 24.6001C188.294 24.5841 188.274 24.5721 188.266 24.5641L188.254 24.5521C188.166 24.5281 188.062 24.4841 187.942 24.4201L187.666 24.1441C187.666 24.104 187.67 24.0641 187.678 24.0241C187.678 23.9921 187.686 23.9561 187.702 23.9161C187.942 22.9961 188.25 21.9881 188.626 20.8921C189.01 19.7881 189.486 18.5401 190.054 17.1481C190.654 15.6841 191.218 14.3561 191.746 13.1641C192.274 11.972 192.758 10.8881 193.198 9.91205C193.486 9.27205 193.766 8.65205 194.038 8.05205C194.318 7.45205 194.566 6.91205 194.782 6.43205C194.838 6.31205 194.894 6.19205 194.95 6.07205C195.006 5.95205 195.058 5.84005 195.106 5.73605L195.094 5.74805C195.102 5.72405 195.114 5.69205 195.13 5.65205C195.146 5.61205 195.162 5.58005 195.178 5.55605C195.194 5.50805 195.214 5.45605 195.238 5.40005C195.27 5.34405 195.298 5.29605 195.322 5.25605L195.31 5.29205C195.582 4.70805 195.818 4.20405 196.018 3.78005C196.218 3.35605 196.382 3.00005 196.51 2.71205C196.646 2.42405 196.754 2.20005 196.834 2.04005C196.914 1.87205 196.97 1.75605 197.002 1.69205C197.082 1.52405 197.178 1.37605 197.29 1.24805C197.402 1.11205 197.518 1.00805 197.638 0.93605C197.758 0.856051 197.878 0.80805 197.998 0.792049C198.118 0.76805 198.23 0.78405 198.334 0.84005V0.82805C198.55 0.94805 198.658 1.17605 198.658 1.51205C198.658 1.77605 198.582 2.06805 198.43 2.38805V2.37605C198.414 2.42405 198.39 2.47205 198.358 2.52005C198.334 2.56005 198.306 2.61205 198.274 2.67605C198.258 2.70005 198.242 2.72805 198.226 2.76005C198.21 2.79205 198.182 2.85605 198.142 2.95205C198.094 3.04005 198.038 3.14005 197.974 3.25205C197.918 3.36405 197.846 3.50005 197.758 3.66005C197.678 3.81205 197.582 4.00005 197.47 4.22405C197.358 4.44005 197.226 4.70005 197.074 5.00405C197.058 5.04405 197.042 5.07605 197.026 5.10005C197.018 5.12405 197.002 5.14805 196.978 5.17205C196.722 5.66805 196.422 6.26405 196.078 6.96005C195.742 7.64805 195.346 8.47205 194.89 9.43205C194.402 10.4481 193.846 11.6281 193.222 12.9721C192.598 14.3081 191.914 15.8561 191.17 17.6161C190.818 18.4401 190.51 19.2001 190.246 19.8961C189.982 20.5921 189.742 21.2521 189.526 21.8761V21.8641C189.47 22.0241 189.414 22.1841 189.358 22.3441C189.302 22.4961 189.25 22.6521 189.202 22.8121C189.41 22.6761 189.61 22.5481 189.802 22.4281C190.002 22.3001 190.186 22.18 190.354 22.0681C190.394 22.0441 190.434 22.0201 190.474 21.9961C190.522 21.9641 190.566 21.9361 190.606 21.9121H190.594C190.642 21.8801 190.69 21.8521 190.738 21.8281C190.754 21.8201 190.77 21.8081 190.786 21.7921C190.802 21.7761 190.818 21.764 190.834 21.7561C190.866 21.74 190.906 21.7241 190.954 21.7081C191.002 21.6841 191.054 21.6521 191.11 21.6121C191.126 21.6041 191.146 21.5881 191.17 21.5641C191.258 21.5081 191.342 21.4561 191.422 21.4081C191.51 21.3601 191.598 21.3081 191.686 21.2521C191.83 21.1641 191.974 21.0801 192.118 21.0001C192.27 20.9121 192.41 20.8321 192.538 20.7601C193.034 20.4721 193.53 20.1841 194.026 19.8961C194.53 19.6081 195.062 19.316 195.622 19.0201C195.91 18.868 196.214 18.708 196.534 18.5401C196.862 18.3721 197.214 18.1961 197.59 18.0121L198.166 17.7241C198.222 17.7001 198.274 17.6761 198.322 17.6521C198.378 17.628 198.434 17.6 198.49 17.5681C198.546 17.5441 198.602 17.5201 198.658 17.496C198.714 17.4641 198.77 17.4361 198.826 17.4121L198.874 17.4001C198.85 17.4001 198.846 17.3961 198.862 17.3881L198.874 17.3761C198.93 17.3361 198.986 17.3041 199.042 17.2801C199.098 17.2481 199.15 17.2121 199.198 17.1721L199.426 17.0041C199.49 16.9641 199.582 16.9041 199.702 16.8241C199.822 16.7441 199.906 16.6841 199.954 16.6441C199.978 16.6761 200.046 16.7041 200.158 16.7281C200.27 16.7521 200.39 16.784 200.518 16.8241C200.654 16.8561 200.778 16.904 200.89 16.9681C201.002 17.024 201.066 17.1121 201.082 17.2321C201.098 17.3441 201.05 17.4921 200.938 17.6761C200.826 17.8601 200.614 18.0881 200.302 18.3601L200.158 18.3721C200.022 18.4441 199.882 18.5161 199.738 18.5881C199.594 18.6521 199.454 18.7161 199.318 18.7801C198.838 19.1161 198.366 19.4481 197.902 19.7761C197.446 20.104 197.054 20.4001 196.726 20.6641C196.542 20.8001 196.358 20.9481 196.174 21.1081C195.998 21.2681 195.826 21.4281 195.658 21.5881V21.5761C195.522 21.7041 195.39 21.8361 195.262 21.9721C195.142 22.1081 195.046 22.2441 194.974 22.3801C195.038 22.444 195.118 22.5001 195.214 22.5481C195.366 22.6441 195.522 22.7241 195.682 22.7881C195.85 22.8441 196.01 22.892 196.162 22.9321C196.554 23.0201 196.99 23.0641 197.47 23.0641C197.606 23.0641 197.742 23.0601 197.878 23.0521C198.022 23.0441 198.174 23.0321 198.334 23.0161C198.99 22.944 199.602 22.8281 200.17 22.6681C200.738 22.5001 201.266 22.3201 201.754 22.1281C202.242 21.9441 202.694 21.7561 203.11 21.5641C203.526 21.364 203.902 21.1721 204.238 20.9881H204.226C204.914 20.6201 205.494 20.288 205.966 19.9921C206.446 19.688 206.834 19.4361 207.13 19.2361C207.474 19.0041 207.762 18.8041 207.994 18.6361C208.226 18.4601 208.422 18.3121 208.582 18.1921C208.606 18.1761 208.634 18.1521 208.666 18.1201C208.778 18.0401 208.886 17.9641 208.99 17.8921C209.094 17.8201 209.202 17.7401 209.314 17.6521C209.682 17.3801 210.026 17.2441 210.346 17.2441C210.586 17.2441 210.766 17.3241 210.886 17.4841ZM193.798 22.7161V22.7281L193.786 22.6801C193.786 22.6881 193.786 22.6961 193.786 22.7041C193.794 22.7041 193.798 22.7081 193.798 22.7161Z" fill="#F44647"/>
<path d="M233.055 17.5561C233.151 17.7641 233.143 17.9761 233.031 18.1921C232.919 18.4001 232.755 18.5601 232.539 18.6721C232.491 18.6961 232.415 18.7161 232.311 18.7321C232.303 18.7321 232.299 18.7361 232.299 18.7441C232.299 18.7441 232.295 18.7441 232.287 18.7441C232.263 18.7521 232.223 18.764 232.167 18.7801C232.119 18.788 232.047 18.8081 231.951 18.8401C231.863 18.8721 231.743 18.9161 231.591 18.9721C231.447 19.0281 231.263 19.0961 231.039 19.1761C230.687 19.3041 230.239 19.4721 229.695 19.6801C229.159 19.8801 228.479 20.132 227.655 20.4361C226.831 20.7401 225.855 21.0961 224.727 21.5041C223.599 21.9041 222.263 22.3401 220.719 22.8121C219.151 23.2841 217.715 23.6561 216.411 23.9281C215.107 24.1921 213.907 24.3361 212.811 24.3601C212.251 24.368 211.715 24.3281 211.203 24.2401C210.691 24.1601 210.219 24.0001 209.787 23.7601C209.323 23.4881 208.971 23.1521 208.731 22.7521C208.619 22.552 208.527 22.3441 208.455 22.1281C208.391 21.9121 208.351 21.7201 208.335 21.5521C208.311 21.1921 208.323 20.864 208.371 20.5681C208.427 20.2721 208.483 20.0041 208.539 19.7641C208.627 19.4841 208.695 19.2641 208.743 19.1041C208.799 18.9361 208.851 18.7961 208.899 18.6841C208.987 18.4681 209.071 18.2801 209.151 18.1201C209.239 17.952 209.303 17.8361 209.343 17.7721C209.407 17.6681 209.487 17.5801 209.583 17.5081C209.679 17.4361 209.779 17.3841 209.883 17.3521C209.987 17.3201 210.091 17.312 210.195 17.3281C210.307 17.3441 210.411 17.3801 210.507 17.4361C210.667 17.5561 210.771 17.7201 210.819 17.9281C210.867 18.1361 210.843 18.3321 210.747 18.5161V18.5041C210.707 18.6001 210.683 18.6521 210.675 18.6601C210.667 18.6681 210.659 18.68 210.651 18.6961C210.627 18.7361 210.595 18.7841 210.555 18.8401C210.515 18.8961 210.467 18.9681 210.411 19.0561C210.371 19.1121 210.327 19.1881 210.279 19.2841C210.231 19.3801 210.175 19.4961 210.111 19.6321V19.6201C210.047 19.764 209.979 19.924 209.907 20.1C209.843 20.2761 209.787 20.4721 209.739 20.6881H209.751C209.727 20.8001 209.707 20.916 209.691 21.0361C209.675 21.1561 209.667 21.2801 209.667 21.4081C209.675 21.5361 209.691 21.6641 209.715 21.7921C209.739 21.9121 209.783 22.0241 209.847 22.1281C209.911 22.2401 210.003 22.3521 210.123 22.4641C210.243 22.5681 210.383 22.6641 210.543 22.7521C210.911 22.9361 211.331 23.0521 211.803 23.1001C212.147 23.1481 212.503 23.1721 212.871 23.1721C213.247 23.1721 213.663 23.1481 214.119 23.1001C214.575 23.0521 215.043 22.9921 215.523 22.9201C215.867 22.8641 216.235 22.7961 216.627 22.7161C217.027 22.6281 217.435 22.5321 217.851 22.4281C218.275 22.3241 218.699 22.2161 219.123 22.1041C219.555 21.9841 219.975 21.8641 220.383 21.7441C221.015 21.5521 221.635 21.3521 222.243 21.1441C222.859 20.9361 223.443 20.7321 223.995 20.5321C224.555 20.3321 225.071 20.1441 225.543 19.9681C226.023 19.784 226.443 19.6201 226.803 19.4761C227.507 19.1961 228.135 18.9401 228.687 18.7081C229.239 18.4681 229.675 18.2761 229.995 18.1321H229.983C230.383 17.9481 230.687 17.8041 230.895 17.7001C231.103 17.5881 231.271 17.5 231.399 17.4361C231.495 17.3881 231.583 17.3481 231.663 17.3161C231.743 17.2761 231.831 17.236 231.927 17.1961C232.159 17.1081 232.383 17.1 232.599 17.1721C232.815 17.2441 232.967 17.3721 233.055 17.5561ZM214.539 11.7241C214.467 11.7321 214.395 11.7401 214.323 11.7481C214.251 11.7561 214.183 11.7641 214.119 11.7721C214.071 11.7801 214.023 11.7881 213.975 11.7961C213.927 11.7961 213.883 11.8001 213.843 11.8081C213.395 11.8641 213.019 11.9081 212.715 11.9401C212.411 11.9641 212.155 11.9761 211.947 11.9761C211.563 11.9761 211.295 11.916 211.143 11.7961C210.999 11.6761 210.919 11.4881 210.903 11.2321C210.887 11.0001 210.939 10.8041 211.059 10.6441C211.179 10.4841 211.319 10.4041 211.479 10.4041C211.495 10.4041 211.515 10.4041 211.539 10.4041C211.571 10.4041 211.611 10.4121 211.659 10.4281L211.647 10.416C211.703 10.4321 211.815 10.4481 211.983 10.4641C212.151 10.4801 212.443 10.4881 212.859 10.4881C213.203 10.4881 213.639 10.4801 214.167 10.4641C214.695 10.4481 215.359 10.4161 216.159 10.3681C216.775 10.3281 217.279 10.2921 217.671 10.26C218.071 10.22 218.391 10.1841 218.631 10.1521C218.871 10.1121 219.047 10.0801 219.159 10.0561C219.271 10.0241 219.355 9.99605 219.411 9.97205C219.451 9.95605 219.483 9.94805 219.507 9.94805C219.539 9.94005 219.575 9.93205 219.615 9.92405C219.695 9.89205 219.783 9.86805 219.879 9.85205C219.975 9.82805 220.063 9.82805 220.143 9.85205C220.231 9.87605 220.303 9.93205 220.359 10.0201C220.423 10.1 220.463 10.232 220.479 10.416C220.487 10.6161 220.439 10.7761 220.335 10.8961C220.239 11.0081 220.083 11.1001 219.867 11.1721C219.659 11.2441 219.395 11.2961 219.075 11.3281C218.755 11.3601 218.379 11.3921 217.947 11.4241H217.959C217.911 11.4321 217.859 11.4361 217.803 11.4361C217.747 11.4361 217.691 11.4401 217.635 11.4481C217.227 11.4801 216.763 11.5161 216.243 11.5561C215.731 11.5961 215.163 11.6521 214.539 11.7241Z" fill="#F44647"/>
<path d="M260.546 17.5921C260.665 17.4961 260.794 17.4241 260.93 17.3761C261.065 17.3281 261.194 17.3041 261.314 17.3041C261.553 17.3041 261.745 17.3961 261.889 17.5801C261.945 17.6681 261.978 17.7681 261.986 17.8801C261.993 17.9841 261.978 18.0961 261.938 18.2161C261.905 18.3281 261.853 18.4401 261.781 18.5521C261.71 18.6641 261.622 18.7641 261.518 18.8521C261.502 18.8601 261.481 18.8761 261.457 18.9001C261.441 18.9081 261.41 18.9281 261.362 18.9601L261.289 19.0081L261.217 19.0441H261.229C261.117 19.108 260.993 19.1801 260.858 19.2601C260.722 19.3401 260.561 19.444 260.378 19.5721C260.41 19.556 260.397 19.5681 260.341 19.6081C260.293 19.6481 260.237 19.688 260.173 19.7281C259.957 19.872 259.686 20.0441 259.358 20.2441C259.038 20.4441 258.669 20.6721 258.254 20.9281C257.99 21.0881 257.694 21.2601 257.366 21.4441C257.046 21.6281 256.694 21.8161 256.31 22.0081C255.934 22.1921 255.51 22.3921 255.038 22.6081C254.566 22.8161 254.053 23.0121 253.501 23.1961C253.214 23.2921 252.902 23.3921 252.566 23.4961C252.238 23.5921 251.889 23.6841 251.521 23.7721C251.161 23.8521 250.785 23.9201 250.393 23.9761C250.001 24.0241 249.598 24.0521 249.182 24.0601C248.766 24.0681 248.317 24.0401 247.837 23.9761C247.365 23.9121 246.901 23.8041 246.445 23.6521C245.973 23.4921 245.497 23.2801 245.018 23.0161C244.538 22.7441 244.094 22.4281 243.686 22.0681C243.189 21.6121 242.79 21.1721 242.486 20.7481C242.182 20.3161 241.925 19.924 241.717 19.5721C241.63 19.4361 241.553 19.3041 241.49 19.1761C241.426 19.048 241.361 18.9201 241.298 18.7921C241.01 18.9281 240.678 19.0881 240.301 19.2721C239.934 19.4561 239.53 19.68 239.09 19.944C238.73 20.16 238.306 20.4241 237.818 20.7361C237.329 21.0401 236.817 21.3641 236.281 21.7081C236.233 21.7401 236.182 21.7721 236.126 21.8041C236.07 21.8361 236.021 21.8681 235.982 21.9001C235.83 22.0041 235.665 22.1081 235.49 22.2121C235.322 22.3081 235.154 22.4121 234.986 22.5241C234.521 22.7961 234.065 23.0601 233.617 23.3161C233.169 23.5721 232.733 23.7921 232.309 23.9761C232.077 24.0721 231.842 24.1601 231.602 24.2401C231.37 24.3281 231.149 24.392 230.941 24.4321C230.757 24.4721 230.542 24.4921 230.294 24.4921C230.142 24.4921 229.997 24.4841 229.861 24.4681C229.725 24.4521 229.594 24.4201 229.465 24.3721C229.449 24.3641 229.434 24.3561 229.417 24.3481C229.393 24.3401 229.374 24.3321 229.357 24.3241C229.35 24.3161 229.341 24.3121 229.333 24.3121C229.326 24.3121 229.314 24.3081 229.298 24.3001H229.273L229.07 24.1921C228.941 24.0881 228.854 23.9921 228.805 23.9041L228.818 23.9161L228.781 23.8441L228.758 23.8201H228.77C228.721 23.7081 228.697 23.6201 228.697 23.5561C228.689 23.4921 228.686 23.4281 228.686 23.3641V23.2081C228.702 23.0721 228.726 22.9521 228.758 22.8481C228.79 22.7441 228.826 22.6441 228.865 22.5481L228.854 22.5601C228.973 22.2161 229.105 21.9041 229.249 21.6241C229.385 21.3601 229.517 21.1121 229.645 20.8801C229.773 20.6401 229.893 20.4241 230.005 20.2321C230.429 19.4881 230.753 18.9281 230.977 18.5521C231.209 18.1761 231.354 17.944 231.41 17.8561C231.49 17.736 231.585 17.632 231.697 17.5441C231.809 17.4561 231.921 17.3921 232.033 17.3521C232.153 17.3041 232.27 17.2841 232.382 17.2921C232.493 17.3001 232.594 17.3321 232.682 17.3881V17.3761C232.786 17.4401 232.861 17.5321 232.91 17.6521C232.958 17.764 232.982 17.8841 232.982 18.0121C232.982 18.1241 232.961 18.2401 232.921 18.3601C232.889 18.4801 232.829 18.6001 232.742 18.7201L232.766 18.6961C232.742 18.7361 232.709 18.7881 232.669 18.8521C232.63 18.916 232.589 18.9681 232.549 19.0081C232.469 19.1121 232.357 19.2681 232.214 19.4761C232.07 19.6841 231.869 19.9881 231.613 20.3881C231.597 20.4041 231.582 20.4281 231.566 20.4601C231.558 20.4841 231.546 20.504 231.529 20.5201C231.521 20.5361 231.513 20.5481 231.505 20.5561C231.505 20.5561 231.501 20.5641 231.493 20.5801C231.477 20.6121 231.462 20.6401 231.445 20.6641C231.429 20.6801 231.41 20.708 231.385 20.7481L231.398 20.7361C231.318 20.8561 231.234 20.9841 231.146 21.1201C231.058 21.2481 230.969 21.3921 230.882 21.5521C230.738 21.7921 230.598 22.0481 230.462 22.3201C230.389 22.4561 230.318 22.5961 230.245 22.7401C230.182 22.8761 230.122 23.0161 230.066 23.1601C230.082 23.1601 230.097 23.1641 230.113 23.1721C230.13 23.1721 230.145 23.1721 230.161 23.1721C230.322 23.1721 230.514 23.156 230.738 23.1241C230.969 23.0921 231.174 23.048 231.35 22.9921C231.549 22.9281 231.773 22.84 232.021 22.7281C232.277 22.6161 232.537 22.4961 232.801 22.3681C233.074 22.2321 233.345 22.0921 233.617 21.9481C233.889 21.7961 234.145 21.6481 234.385 21.5041C234.658 21.3441 234.926 21.18 235.189 21.0121C235.454 20.8361 235.702 20.6761 235.934 20.5321C236.021 20.4761 236.109 20.4201 236.197 20.3641C236.293 20.3081 236.382 20.2521 236.462 20.1961C236.493 20.18 236.53 20.1601 236.57 20.1361C236.609 20.1121 236.646 20.0881 236.678 20.0641C236.742 20.0241 236.806 19.9841 236.87 19.944C236.942 19.904 237.01 19.8641 237.074 19.8241H237.061C237.445 19.5841 237.805 19.3641 238.141 19.1641C238.485 18.9561 238.802 18.768 239.09 18.6C239.354 18.4401 239.617 18.2841 239.882 18.1321C240.154 17.9721 240.397 17.8361 240.613 17.7241L240.962 17.5561L241.298 17.4241H241.286L241.178 17.4481L241.249 17.4121C241.266 17.4041 241.29 17.3921 241.322 17.3761C241.354 17.3521 241.398 17.312 241.454 17.2561L242.234 17.6761C242.242 17.6921 242.253 17.7241 242.27 17.7721C242.294 17.8201 242.31 17.8521 242.318 17.8681V17.8561C242.334 17.896 242.346 17.9241 242.354 17.9401C242.361 17.9561 242.37 17.972 242.378 17.9881C242.562 18.3161 242.754 18.6281 242.954 18.9241C243.154 19.2201 243.398 19.548 243.686 19.9081H243.674C243.802 20.0601 243.941 20.2201 244.094 20.3881C244.254 20.556 244.438 20.7401 244.646 20.9401H244.633C244.833 21.1241 245.053 21.3081 245.294 21.4921C245.542 21.6761 245.829 21.8521 246.158 22.0201C246.59 22.2521 246.997 22.4201 247.382 22.5241C247.766 22.6281 248.126 22.7001 248.462 22.7401C248.822 22.7881 249.141 22.8121 249.421 22.8121C249.541 22.8121 249.677 22.8081 249.829 22.8001C249.981 22.7921 250.126 22.7801 250.262 22.7641C250.734 22.7001 251.226 22.6041 251.738 22.4761C252.249 22.3481 252.753 22.2001 253.249 22.0321C254.13 21.6961 254.889 21.3521 255.529 21.0001C256.177 20.6481 256.717 20.3441 257.15 20.0881H257.138C257.602 19.7921 257.985 19.5361 258.289 19.3201C258.593 19.1041 258.853 18.916 259.069 18.7561C259.285 18.5881 259.469 18.444 259.621 18.3241C259.781 18.2041 259.914 18.1 260.018 18.0121C260.034 17.996 260.046 17.9841 260.053 17.9761C260.061 17.9681 260.074 17.9561 260.09 17.9401C260.161 17.8761 260.234 17.8201 260.306 17.7721C260.378 17.7161 260.457 17.6561 260.546 17.5921Z" fill="#F44647"/>
<path d="M281.45 17.604C281.498 17.7001 281.514 17.8081 281.498 17.9281C281.482 18.0481 281.434 18.1721 281.354 18.3001C281.274 18.4201 281.17 18.5441 281.042 18.6721C280.922 18.7921 280.778 18.9 280.61 18.996C280.586 19.0121 280.558 19.028 280.526 19.0441C280.502 19.052 280.474 19.0641 280.442 19.0801C280.418 19.0961 280.39 19.1121 280.358 19.1281C280.318 19.1601 280.258 19.1921 280.178 19.2241L280.202 19.2121C280.098 19.2681 279.95 19.3481 279.758 19.4521C279.574 19.5481 279.294 19.7001 278.918 19.9081V19.8961C278.558 20.0961 278.106 20.3561 277.562 20.6761C277.018 20.9881 276.334 21.392 275.51 21.8881H275.522C274.714 22.392 273.758 22.996 272.654 23.7001C271.558 24.396 270.298 25.2441 268.874 26.2441C268.106 26.7881 267.286 27.4041 266.414 28.0921C265.542 28.7801 264.658 29.5121 263.762 30.2881C263.29 30.6961 262.814 31.1201 262.334 31.5601C261.862 32.0081 261.386 32.4801 260.906 32.9761C260.674 33.208 260.458 33.4321 260.258 33.6481C260.058 33.8641 259.842 34.1001 259.61 34.3561C259.33 35.0201 259.062 35.6281 258.806 36.1801C258.558 36.7401 258.318 37.2601 258.086 37.7401V37.7521C258.07 37.7921 258.054 37.8281 258.038 37.8601C258.014 37.9001 257.994 37.9401 257.978 37.9801C257.962 38.0041 257.954 38.0281 257.954 38.0521C257.946 38.076 257.934 38.0961 257.918 38.1121C257.902 38.1441 257.886 38.1841 257.87 38.2321C257.646 38.7041 257.426 39.132 257.21 39.5161C256.994 39.9081 256.818 40.2881 256.682 40.6561C256.618 40.84 256.522 41.0441 256.394 41.2681C256.266 41.5001 256.13 41.7121 255.986 41.9041C255.834 42.1041 255.682 42.2601 255.53 42.3721C255.37 42.4921 255.226 42.5241 255.098 42.4681C254.962 42.4201 254.854 42.2641 254.774 42.0001C254.694 41.7441 254.654 41.3361 254.654 40.7761C254.654 40.3521 254.706 39.9281 254.81 39.5041L254.798 39.5161C254.942 38.9001 255.182 38.2481 255.518 37.5601C255.838 36.9281 256.262 36.2441 256.79 35.5081C257.318 34.7801 258.01 33.9681 258.866 33.0721C259.058 32.5921 259.25 32.0921 259.442 31.5721C259.642 31.0521 259.846 30.4841 260.054 29.8681C260.51 28.4841 260.902 27.1641 261.23 25.9081C261.558 24.6521 261.81 23.5121 261.986 22.4881C261.898 22.5361 261.81 22.58 261.722 22.6201C261.642 22.6521 261.562 22.6841 261.482 22.7161L261.494 22.7041C261.238 22.8241 260.97 22.9121 260.69 22.9681C260.41 23.0241 260.13 23.0321 259.85 22.9921C259.538 22.952 259.25 22.8401 258.986 22.6561C258.874 22.5681 258.774 22.4761 258.686 22.3801C258.59 22.2761 258.506 22.1721 258.434 22.0681C258.306 21.868 258.206 21.6521 258.134 21.4201C258.054 21.1801 258.014 20.9561 258.014 20.7481C258.014 20.5241 258.046 20.316 258.11 20.1241C258.166 19.9321 258.23 19.7601 258.302 19.6081C258.438 19.3441 258.594 19.1121 258.77 18.9121C258.946 18.712 259.11 18.5441 259.262 18.4081C259.566 18.1441 259.798 17.9561 259.958 17.8441C260.126 17.7321 260.246 17.6521 260.318 17.604C260.486 17.4921 260.654 17.4121 260.822 17.364C260.998 17.316 261.162 17.2921 261.314 17.2921C261.49 17.2921 261.642 17.3281 261.77 17.4001C261.898 17.4641 261.978 17.5521 262.01 17.6641L261.998 17.6401C262.046 17.7441 262.054 17.8561 262.022 17.9761C261.998 18.0881 261.946 18.2041 261.866 18.3241C261.786 18.4361 261.686 18.5481 261.566 18.6601C261.446 18.7641 261.318 18.864 261.182 18.9601C261.166 18.9681 261.134 18.9881 261.086 19.0201C261.07 19.0361 261.05 19.0481 261.026 19.0561C261.01 19.0641 261.006 19.0641 261.014 19.0561C260.95 19.0961 260.878 19.1401 260.798 19.1881C260.726 19.2361 260.634 19.3001 260.522 19.3801C260.434 19.444 260.338 19.5201 260.234 19.6081C260.138 19.6881 260.046 19.7721 259.958 19.8601C259.87 19.9641 259.778 20.0881 259.682 20.2321C259.594 20.3761 259.534 20.5401 259.502 20.7241C259.478 20.8521 259.522 21.0161 259.634 21.2161C259.69 21.3041 259.75 21.3841 259.814 21.4561C259.886 21.5201 259.966 21.5601 260.054 21.5761C260.206 21.6081 260.366 21.6081 260.534 21.5761C260.71 21.5361 260.89 21.4761 261.074 21.3961C261.258 21.3081 261.466 21.1921 261.698 21.0481C261.938 20.8961 262.162 20.7441 262.37 20.5921L262.382 20.5801C262.398 20.5641 262.418 20.5481 262.442 20.5321C262.466 20.5081 262.486 20.4881 262.502 20.4721C262.518 20.4561 262.53 20.444 262.538 20.4361C262.554 20.4281 262.582 20.4121 262.622 20.3881L262.802 20.2681C262.818 20.2841 262.838 20.2961 262.862 20.3041C262.894 20.312 262.922 20.3241 262.946 20.3401L263.018 20.3761C263.042 20.3921 263.102 20.4241 263.198 20.4721C263.302 20.5121 263.426 20.5681 263.57 20.6401L263.558 20.9761V21.0361L263.57 21.1201L263.546 21.2281C263.53 21.3081 263.518 21.3921 263.51 21.4801C263.502 21.5601 263.49 21.6441 263.474 21.7321L263.438 21.9121C263.43 21.944 263.422 21.9761 263.414 22.0081C263.414 22.0401 263.41 22.0681 263.402 22.0921C263.394 22.1161 263.39 22.1401 263.39 22.1641C263.39 22.1881 263.386 22.2121 263.378 22.2361L263.39 22.2121C263.374 22.3001 263.358 22.3881 263.342 22.4761C263.326 22.5561 263.31 22.6401 263.294 22.7281C263.23 23.056 263.15 23.4201 263.054 23.8201C262.958 24.2201 262.866 24.6 262.778 24.9601C262.69 25.3361 262.582 25.7481 262.454 26.1961C262.326 26.6441 262.19 27.1 262.046 27.5641C261.91 28.0361 261.766 28.5041 261.614 28.9681C261.47 29.4321 261.33 29.8641 261.194 30.2641C261.162 30.3521 261.134 30.4281 261.11 30.4921C261.086 30.5561 261.066 30.6201 261.05 30.6841C261.018 30.7641 260.998 30.812 260.99 30.8281C260.99 30.8521 260.99 30.8601 260.99 30.8521C260.982 30.8761 260.97 30.9041 260.954 30.9361C260.946 30.9761 260.934 31.0241 260.918 31.0801C261.078 30.9441 261.242 30.8001 261.41 30.6481C261.586 30.4961 261.742 30.3601 261.878 30.2401L261.866 30.2521C261.882 30.2361 261.902 30.2201 261.926 30.2041C261.95 30.1881 261.97 30.1721 261.986 30.1561C262.418 29.7801 262.83 29.4281 263.222 29.1001C263.622 28.7721 263.99 28.4761 264.326 28.2121C264.982 27.6841 265.63 27.1761 266.27 26.6881C266.918 26.2081 267.61 25.7001 268.346 25.1641C269.586 24.2841 270.682 23.524 271.634 22.8841C272.586 22.2441 273.422 21.6881 274.142 21.2161C274.87 20.7441 275.486 20.3481 275.99 20.0281C276.494 19.7081 276.926 19.4321 277.286 19.2001C277.374 19.1441 277.462 19.0881 277.55 19.0321C277.638 18.9761 277.718 18.9241 277.79 18.8761H277.778C277.97 18.7561 278.138 18.6481 278.282 18.5521C278.514 18.4001 278.718 18.2761 278.894 18.1801C279.07 18.0761 279.242 17.9721 279.41 17.8681C279.474 17.8281 279.538 17.7881 279.602 17.7481C279.666 17.708 279.734 17.6681 279.806 17.6281C279.982 17.5241 280.162 17.4481 280.346 17.4001C280.53 17.3441 280.694 17.3161 280.838 17.3161C281.134 17.3161 281.334 17.4121 281.438 17.604H281.45ZM261.002 30.8281C261.002 30.8281 261.006 30.8241 261.014 30.8161L261.002 30.8281Z" fill="#F44647"/>
<path d="M295.049 17.604C295.089 17.7001 295.105 17.8041 295.097 17.916C295.089 18.0201 295.057 18.1281 295.001 18.2401C294.953 18.3521 294.885 18.4601 294.797 18.5641C294.709 18.6601 294.605 18.7481 294.485 18.8281C294.453 18.8441 294.421 18.864 294.389 18.8881C294.365 18.9041 294.329 18.9281 294.281 18.9601L294.233 18.9841C294.217 18.9921 294.201 19.0001 294.185 19.0081C294.177 19.0081 294.169 19.0121 294.161 19.0201C294.081 19.0601 293.969 19.1161 293.825 19.1881C293.689 19.2601 293.517 19.3601 293.309 19.4881C293.069 19.632 292.761 19.8201 292.385 20.0521C292.017 20.2841 291.553 20.58 290.993 20.9401C290.441 21.292 289.785 21.7201 289.025 22.2241C288.265 22.7281 287.381 23.3201 286.373 24.0001C285.821 24.3681 285.249 24.7721 284.657 25.2121C284.065 25.6521 283.421 26.1361 282.725 26.6641C282.125 27.1281 281.457 27.6441 280.721 28.2121C279.993 28.7881 279.261 29.3641 278.525 29.9401C278.493 30.0681 278.461 30.2001 278.429 30.3361C278.397 30.4721 278.361 30.6081 278.321 30.7441C278.121 31.3921 277.893 31.9961 277.637 32.5561C277.373 33.1161 277.065 33.5961 276.713 33.9961C276.529 34.2041 276.333 34.3881 276.125 34.5481C275.917 34.7081 275.697 34.8361 275.465 34.9321C275.241 35.0201 275.013 35.0921 274.781 35.1481C274.541 35.2041 274.321 35.2361 274.121 35.2441C274.009 35.2441 273.901 35.2401 273.797 35.2321C273.685 35.2241 273.585 35.2121 273.497 35.1961C273.337 35.1641 273.189 35.1041 273.053 35.0161C272.909 34.9281 272.805 34.7881 272.741 34.5961L272.753 34.6081C272.681 34.4401 272.653 34.2881 272.669 34.1521C272.685 34.0241 272.713 33.9041 272.753 33.7921C272.793 33.6881 272.833 33.5961 272.873 33.5161C272.913 33.4361 272.953 33.3641 272.993 33.3001C273.129 33.0921 273.273 32.8921 273.425 32.7001C273.577 32.5161 273.721 32.3401 273.857 32.1721L273.833 32.1961C273.849 32.18 273.869 32.1561 273.893 32.1241C273.909 32.1001 273.925 32.0801 273.941 32.0641C274.213 31.7681 274.513 31.4641 274.841 31.1521C275.161 30.8481 275.509 30.5361 275.885 30.2161C276.117 30.0081 276.357 29.7961 276.605 29.5801C276.853 29.3721 277.153 29.1401 277.505 28.8841C277.561 28.604 277.613 28.34 277.661 28.0921C277.701 27.8521 277.741 27.6041 277.781 27.3481C277.845 26.9001 277.905 26.4481 277.961 25.9921C278.017 25.5361 278.065 25.1201 278.105 24.7441C278.113 24.6881 278.121 24.6241 278.129 24.5521C278.137 24.4881 278.145 24.4281 278.153 24.3721C278.161 24.3161 278.165 24.2601 278.165 24.2041C278.173 24.1561 278.181 24.1081 278.189 24.0601C278.205 23.9481 278.217 23.8321 278.225 23.7121C278.241 23.5921 278.257 23.4761 278.273 23.3641C278.329 22.8841 278.377 22.4481 278.417 22.0561C278.465 21.6561 278.517 21.2881 278.573 20.9521C278.653 20.4961 278.737 20.0761 278.825 19.6921C278.921 19.3081 279.013 18.996 279.101 18.7561C279.189 18.532 279.277 18.3361 279.365 18.1681C279.461 18.0001 279.533 17.8841 279.581 17.8201C279.669 17.7001 279.773 17.5961 279.893 17.5081C280.021 17.4201 280.153 17.3561 280.289 17.3161C280.497 17.2681 280.673 17.284 280.817 17.364C280.961 17.4361 281.065 17.5361 281.129 17.6641C281.185 17.7761 281.205 17.8881 281.189 18.0001C281.173 18.1121 281.145 18.232 281.105 18.3601L281.069 18.4321C281.045 18.472 281.017 18.5241 280.985 18.5881C280.953 18.6441 280.921 18.6961 280.889 18.7441L280.865 18.7681C280.833 18.8081 280.797 18.8561 280.757 18.9121C280.725 18.9601 280.689 19.0281 280.649 19.1161C280.585 19.2441 280.509 19.4161 280.421 19.6321C280.333 19.8481 280.245 20.136 280.157 20.496C280.069 20.848 279.977 21.312 279.881 21.8881C279.785 22.4641 279.677 23.1881 279.557 24.0601C279.517 24.3161 279.481 24.5801 279.449 24.8521C279.433 24.9881 279.413 25.1241 279.389 25.2601C279.373 25.3961 279.353 25.5401 279.329 25.6921C279.297 25.9001 279.265 26.1121 279.233 26.3281C279.209 26.5521 279.177 26.7761 279.137 27.0001C279.129 27.0321 279.121 27.0601 279.113 27.0841C279.105 27.1161 279.097 27.1441 279.089 27.1681C279.081 27.1841 279.077 27.2041 279.077 27.2281C279.077 27.2521 279.073 27.2721 279.065 27.2881C279.025 27.3281 279.001 27.3921 278.993 27.4801C278.993 27.5761 278.997 27.6721 279.005 27.7681C279.069 27.7201 279.125 27.6801 279.173 27.6481L279.161 27.6601C279.689 27.2761 280.161 26.9321 280.577 26.6281C281.001 26.3321 281.389 26.0601 281.741 25.8121C281.861 25.7241 281.981 25.6401 282.101 25.5601C282.221 25.4801 282.333 25.4001 282.437 25.3201C282.525 25.2561 282.613 25.1921 282.701 25.1281C282.797 25.0721 282.885 25.0121 282.965 24.9481C283.213 24.7801 283.453 24.6121 283.685 24.4441C283.773 24.3801 283.873 24.3081 283.985 24.2281C284.097 24.1481 284.197 24.076 284.285 24.0121C284.429 23.9001 284.577 23.7961 284.729 23.7001C284.881 23.5961 285.037 23.4881 285.197 23.3761H285.185C285.289 23.3041 285.397 23.2321 285.509 23.1601C285.621 23.0801 285.733 23.0001 285.845 22.9201V22.9321C286.669 22.3561 287.393 21.8521 288.017 21.4201C288.649 20.9881 289.205 20.6041 289.685 20.2681C290.189 19.9241 290.629 19.6201 291.005 19.3561C291.381 19.0841 291.685 18.8601 291.917 18.6841C292.093 18.5641 292.249 18.4521 292.385 18.3481C292.529 18.2441 292.653 18.1561 292.757 18.0841L292.781 18.0721C292.941 17.944 293.085 17.8361 293.213 17.7481C293.341 17.6601 293.477 17.5721 293.621 17.4841C293.877 17.3241 294.133 17.2441 294.389 17.2441C294.661 17.2441 294.881 17.364 295.049 17.604ZM276.077 32.9401C276.237 32.7161 276.393 32.4561 276.545 32.1601C276.689 31.8641 276.817 31.5521 276.929 31.2241C276.689 31.4241 276.469 31.6081 276.269 31.7761C276.061 31.944 275.869 32.1081 275.693 32.2681C275.677 32.2841 275.661 32.3001 275.645 32.3161C275.621 32.3401 275.601 32.3561 275.585 32.3641C275.329 32.5961 275.085 32.8241 274.853 33.048C274.621 33.272 274.389 33.5201 274.157 33.7921C274.157 33.7921 274.153 33.8001 274.145 33.8161C274.121 33.8561 274.097 33.896 274.073 33.9361C274.041 33.9761 274.017 34.0161 274.001 34.0561C274.233 34.0721 274.461 34.0521 274.685 33.9961C274.901 33.9241 275.141 33.7961 275.405 33.6121C275.669 33.4281 275.893 33.2041 276.077 32.9401ZM279.077 27.2881L279.065 27.3121V27.2881H279.077Z" fill="#F44647"/>
</svg>
